<svg width="131" height="25" viewBox="0 0 131 25" fill="none" xmlns="http://www.w3.org/2000/svg">
<path d="M36.3419 6.36877V8.77503H30.5714V11.7076H36.3419V14.1136H30.5714V19.4991H27.3V6.36877H36.3419Z" fill="#218455"/>
<path d="M47.6442 7.21476V9.78085C45.9021 8.99762 44.5142 8.60587 43.4805 8.6056C42.9944 8.58263 42.5106 8.68472 42.0752 8.90211C41.9232 8.97061 41.7937 9.08061 41.7015 9.21946C41.6093 9.35831 41.5582 9.52037 41.554 9.68699C41.5615 9.82604 41.599 9.96183 41.6638 10.0851C41.7287 10.2083 41.8194 10.316 41.9298 10.4009C42.1803 10.6264 42.7911 10.9178 43.7625 11.2751C44.5598 11.5575 45.3384 11.8903 46.0935 12.2714C46.6861 12.5867 47.2013 13.0297 47.6019 13.5683C48.0426 14.1832 48.2659 14.9274 48.2364 15.6834C48.2552 16.2432 48.139 16.7993 47.8976 17.3047C47.6563 17.8102 47.2969 18.2501 46.8498 18.5875C45.9258 19.3081 44.7087 19.6682 43.1986 19.6681C41.5367 19.6595 39.9051 19.2226 38.4613 18.3994V15.5708C39.1918 16.0792 39.973 16.5105 40.7924 16.8578C41.4774 17.129 42.2081 17.2663 42.9448 17.2623C44.2293 17.2623 44.8716 16.8584 44.8718 16.0505C44.8654 15.9008 44.8278 15.7541 44.7613 15.6198C44.6949 15.4854 44.6011 15.3665 44.4859 15.2706C44.2285 15.0264 43.6095 14.7291 42.6292 14.3785C41.8313 14.1054 41.0527 13.7789 40.2986 13.4014C39.7128 13.0896 39.2052 12.6492 38.8139 12.1132C38.3762 11.4864 38.1566 10.7332 38.1889 9.96943C38.177 9.43778 38.2949 8.91124 38.5324 8.43544C38.7699 7.95964 39.1198 7.54893 39.5519 7.23889C40.4605 6.54577 41.6761 6.19941 43.1985 6.19983C44.7344 6.2293 46.2478 6.5748 47.6442 7.21479" fill="#218455"/>
<path d="M59.0778 7.21476V9.78085C57.3357 8.99762 55.9478 8.60587 54.9141 8.6056C54.428 8.58263 53.9442 8.68472 53.5088 8.90211C53.3569 8.97061 53.2273 9.08061 53.1351 9.21946C53.0429 9.35831 52.9918 9.52037 52.9876 9.68699C52.9951 9.82604 53.0326 9.96183 53.0974 10.0851C53.1623 10.2083 53.2531 10.316 53.3634 10.4009C53.6139 10.6264 54.2248 10.9178 55.1961 11.2751C55.9934 11.5575 56.772 11.8903 57.5272 12.2714C58.1197 12.5867 58.6349 13.0297 59.0355 13.5683C59.4763 14.1832 59.6995 14.9274 59.6701 15.6834C59.6888 16.2432 59.5726 16.7993 59.3313 17.3047C59.0899 17.8102 58.7305 18.2501 58.2834 18.5875C57.3594 19.3081 56.1423 19.6682 54.6322 19.6681C52.9703 19.6595 51.3387 19.2226 49.8949 18.3994V15.5708C50.6254 16.0792 51.4066 16.5105 52.226 16.8578C52.911 17.129 53.6417 17.2663 54.3784 17.2623C55.6629 17.2623 56.3052 16.8584 56.3054 16.0505C56.299 15.9008 56.2614 15.7541 56.1949 15.6198C56.1285 15.4854 56.0347 15.3665 55.9195 15.2706C55.6621 15.0264 55.0431 14.7291 54.0628 14.3785C53.2649 14.1054 52.4863 13.7789 51.7322 13.4014C51.1463 13.0896 50.6388 12.6492 50.2475 12.1132C49.8098 11.4864 49.5902 10.7332 49.6225 9.96943C49.6106 9.43778 49.7285 8.91124 49.966 8.43544C50.2035 7.95964 50.5534 7.54893 50.9855 7.23889C51.8941 6.54577 53.1097 6.19941 54.6321 6.19983C56.168 6.22935 57.6813 6.57484 59.0778 7.21479" fill="#218455"/>
<path d="M73.839 15.4953V18.362C72.2539 19.2186 70.4807 19.6674 68.679 19.6681C66.3484 19.6681 64.4922 19.0244 63.1104 17.737C62.4474 17.1257 61.9204 16.3819 61.5634 15.5539C61.2064 14.7258 61.0274 13.8319 61.038 12.9302C61.0487 12.0285 61.2487 11.1392 61.6252 10.3197C62.0017 9.50033 62.5461 8.76919 63.2233 8.17373C64.6802 6.85767 66.5833 6.1997 68.9328 6.19983C70.8066 6.19983 72.3919 6.58522 73.6887 7.356V10.2784C72.0969 9.38305 70.5899 8.93522 69.1678 8.93494C67.7704 8.93494 66.6286 9.30926 65.7425 10.0579C65.3168 10.4016 64.9755 10.8383 64.7448 11.3344C64.5141 11.8306 64.4003 12.373 64.4119 12.9201C64.3998 13.4686 64.5114 14.0129 64.7385 14.5124C64.9655 15.0119 65.3021 15.4539 65.7234 15.8055C66.5972 16.5634 67.7171 16.9424 69.0831 16.9426C69.7441 16.9447 70.4021 16.8546 71.0383 16.6751C72.0018 16.357 72.9383 15.9625 73.839 15.4953Z" fill="#218455"/>
<path d="M87.3121 17.7888C87.3799 17.7875 87.4472 17.7997 87.5101 17.8247C87.5731 17.8498 87.6304 17.8871 87.6788 17.9346C87.7283 17.9826 87.7673 18.0404 87.7932 18.1043C87.8191 18.1683 87.8313 18.2369 87.8291 18.3059V18.6439C87.8296 18.7119 87.8166 18.7794 87.7908 18.8423C87.765 18.9053 87.7269 18.9625 87.6788 19.0106C87.6307 19.0587 87.5735 19.0968 87.5105 19.1226C87.4476 19.1484 87.3801 19.1614 87.3121 19.1609H79.4075C79.3396 19.1623 79.2722 19.1491 79.2097 19.1224C79.1473 19.0957 79.0913 19.0561 79.0453 19.006C78.9499 18.9062 78.8977 18.7728 78.9 18.6348C78.9042 18.3499 78.9389 18.0663 79.0034 17.7888C79.065 17.5285 79.1564 17.2761 79.2758 17.0367C79.4 16.8223 79.5366 16.6153 79.6849 16.4167C79.8468 16.2004 80.0243 15.9962 80.216 15.8058C80.4166 15.6052 80.6233 15.4172 80.8361 15.2418C81.0491 15.0662 81.2652 14.897 81.4843 14.7343C81.7036 14.5778 81.9245 14.4211 82.1471 14.2642C82.3693 14.1077 82.5903 13.9573 82.8099 13.8132C83.2672 13.5121 83.6916 13.2036 84.0832 12.8876C84.4753 12.5711 84.8497 12.2436 85.2066 11.905C85.4898 11.6293 85.7207 11.3045 85.8881 10.9465C86.042 10.6064 86.1267 10.2391 86.1373 9.86591C86.1373 9.52746 86.0717 9.19222 85.9441 8.87875C85.8306 8.60194 85.6516 8.35682 85.4225 8.16444C84.831 7.745 84.1171 7.53339 83.3926 7.5627C82.9395 7.55974 82.4895 7.6362 82.0628 7.78861C81.7137 7.91166 81.4037 8.12571 81.165 8.40864C80.6733 9.09395 80.4282 9.9255 80.4694 10.7679C80.4707 10.8349 80.4586 10.9015 80.4336 10.9636C80.4086 11.0258 80.3713 11.0823 80.3239 11.1297C80.2766 11.1771 80.2201 11.2144 80.158 11.2395C80.0958 11.2645 80.0293 11.2767 79.9623 11.2754H79.6047C79.5377 11.2767 79.4712 11.2644 79.409 11.2394C79.3469 11.2143 79.2904 11.177 79.243 11.1296C79.1956 11.0822 79.1583 11.0258 79.1333 10.9636C79.1082 10.9015 79.096 10.8349 79.0972 10.7679C79.1159 7.76038 80.5477 6.23778 83.3926 6.20012C83.9243 6.1945 84.4537 6.27054 84.9624 6.42561C85.4309 6.57215 85.8722 6.79437 86.2689 7.08345C87.0833 7.72258 87.4968 8.6563 87.5094 9.88459C87.4981 10.4114 87.3815 10.9306 87.1663 11.4116C86.9474 11.9017 86.6472 12.3513 86.2784 12.7414C85.9038 13.1275 85.51 13.4947 85.0986 13.8415C84.6743 14.1994 84.2269 14.529 83.7593 14.8282H83.7684C82.9288 15.3832 82.1194 15.9825 81.3435 16.6235H81.3531C80.9588 16.9365 80.6407 17.335 80.4228 17.7888H87.3121Z" fill="#87888A"/>
<path d="M97.825 17.7888C97.8928 17.7875 97.9601 17.7997 98.0231 17.8247C98.086 17.8498 98.1434 17.8871 98.1918 17.9346C98.2413 17.9826 98.2802 18.0404 98.3061 18.1043C98.332 18.1683 98.3442 18.2369 98.3421 18.3059V18.6439C98.3426 18.7119 98.3295 18.7794 98.3037 18.8423C98.2779 18.9053 98.2398 18.9625 98.1917 19.0106C98.1436 19.0587 98.0864 19.0968 98.0235 19.1226C97.9605 19.1484 97.8931 19.1614 97.825 19.1609H89.9204C89.8525 19.1623 89.7851 19.1491 89.7227 19.1224C89.6602 19.0957 89.6042 19.0561 89.5583 19.006C89.4629 18.9062 89.4106 18.7728 89.4129 18.6348C89.4172 18.3499 89.4518 18.0663 89.5163 17.7888C89.5779 17.5285 89.6694 17.2761 89.7888 17.0367C89.913 16.8223 90.0496 16.6153 90.1978 16.4167C90.3597 16.2004 90.5372 15.9962 90.729 15.8058C90.9296 15.6052 91.1362 15.4172 91.349 15.2418C91.562 15.0662 91.7781 14.897 91.9973 14.7343C92.2166 14.5778 92.4375 14.4211 92.6601 14.2642C92.8823 14.1077 93.1032 13.9573 93.3229 13.8132C93.7801 13.5121 94.2045 13.2036 94.5962 12.8876C94.9882 12.5711 95.3627 12.2436 95.7195 11.905C96.0027 11.6293 96.2336 11.3045 96.401 10.9465C96.5549 10.6064 96.6396 10.2391 96.6502 9.86591C96.6503 9.52746 96.5847 9.19222 96.4571 8.87875C96.3436 8.60194 96.1646 8.35683 95.9355 8.16444C95.344 7.745 94.6301 7.53339 93.9056 7.5627C93.4525 7.55974 93.0024 7.6362 92.5758 7.78861C92.2266 7.91166 91.9167 8.12571 91.6779 8.40864C91.1865 9.09403 90.9413 9.92553 90.9823 10.7679C90.9837 10.8349 90.9715 10.9015 90.9465 10.9636C90.9215 11.0258 90.8842 11.0823 90.8369 11.1297C90.7895 11.1771 90.7331 11.2144 90.6709 11.2395C90.6088 11.2645 90.5422 11.2767 90.4752 11.2754H90.1177C90.0507 11.2767 89.9841 11.2644 89.922 11.2394C89.8598 11.2143 89.8034 11.177 89.756 11.1296C89.7086 11.0822 89.6713 11.0258 89.6462 10.9636C89.6212 10.9015 89.6089 10.8349 89.6102 10.7679C89.6289 7.76038 91.0607 6.23778 93.9056 6.20012C94.4373 6.1945 94.9667 6.27054 95.4753 6.42561C95.9438 6.57215 96.3852 6.79437 96.7819 7.08345C97.5962 7.72258 98.0097 8.6563 98.0223 9.88459C98.0111 10.4114 97.8944 10.9306 97.6793 11.4116C97.4604 11.9017 97.1602 12.3513 96.7914 12.7414C96.4167 13.1275 96.023 13.4947 95.6116 13.8415C95.1873 14.1994 94.7398 14.529 94.2722 14.8282H94.2814C93.4418 15.3832 92.6324 15.9825 91.8565 16.6235H91.866C91.4717 16.9365 91.1537 17.335 90.9358 17.7888H97.825Z" fill="#87888A"/>
<path d="M109.222 12.7886C109.232 13.5694 109.15 14.3486 108.977 15.1101C108.815 15.8178 108.559 16.5006 108.216 17.1404C107.862 17.8192 107.323 18.3831 106.66 18.7663C105.927 19.1673 105.104 19.3774 104.268 19.3772C103.443 19.3757 102.632 19.1656 101.91 18.7663C101.251 18.3841 100.713 17.8237 100.358 17.1496C100.009 16.5057 99.7467 15.8184 99.5782 15.1055C99.3995 14.3464 99.3144 13.5683 99.3248 12.7886C99.3144 12.0042 99.3994 11.2214 99.5782 10.4575C99.7474 9.7404 100.01 9.04847 100.358 8.39937C100.712 7.72689 101.25 7.16931 101.91 6.7922C102.633 6.3992 103.445 6.19549 104.268 6.19998C105.101 6.19349 105.922 6.39718 106.656 6.7922C107.314 7.16914 107.855 7.72263 108.216 8.39025C108.559 9.04163 108.814 9.7351 108.977 10.453C109.15 11.2193 109.232 12.0032 109.222 12.7886M107.859 12.7886C107.858 12.4699 107.84 12.1516 107.807 11.8347C107.772 11.4995 107.73 11.1752 107.68 10.8616C107.619 10.5624 107.539 10.2675 107.44 9.97871C107.346 9.70145 107.225 9.4339 107.079 9.17972C106.552 8.13275 105.612 7.59384 104.259 7.56299C103.662 7.55067 103.073 7.70358 102.557 8.00485H102.567C102.344 8.15315 102.139 8.32649 101.956 8.52148C101.769 8.72314 101.608 8.94748 101.477 9.18925C101.331 9.43751 101.211 9.70046 101.12 9.97375C101.022 10.2662 100.95 10.5665 100.904 10.8712C100.628 12.1157 100.628 13.4055 100.904 14.6499C100.951 14.9532 101.025 15.2518 101.124 15.5424C101.221 15.8248 101.343 16.0984 101.486 16.3601C101.73 16.8397 102.1 17.243 102.557 17.5258C102.791 17.6894 103.053 17.8103 103.329 17.883C103.636 17.961 103.952 17.9988 104.268 17.9955C104.59 17.9989 104.911 17.9611 105.222 17.883C105.495 17.8134 105.752 17.6922 105.979 17.5258C106.209 17.3877 106.42 17.2185 106.604 17.0229C106.789 16.8224 106.948 16.5998 107.079 16.3601C107.23 16.1013 107.353 15.8272 107.445 15.5424C107.54 15.2495 107.619 14.9516 107.68 14.6499C107.73 14.3364 107.772 14.023 107.807 13.7097C107.841 13.4038 107.858 13.0963 107.859 12.7886" fill="#87888A"/>
<path d="M119.735 12.7886C119.745 13.5693 119.663 14.3486 119.49 15.1101C119.328 15.8178 119.072 16.5006 118.729 17.1404C118.375 17.8192 117.836 18.3831 117.173 18.7663C116.44 19.1673 115.617 19.3774 114.781 19.3772C113.956 19.3757 113.145 19.1656 112.423 18.7663C111.764 18.3841 111.226 17.8237 110.871 17.1496C110.522 16.5057 110.26 15.8184 110.091 15.1055C109.912 14.3464 109.827 13.5683 109.838 12.7886C109.827 12.0042 109.912 11.2214 110.091 10.4575C110.26 9.7404 110.523 9.04847 110.871 8.39937C111.225 7.72689 111.763 7.16931 112.423 6.7922C113.146 6.3992 113.958 6.19549 114.781 6.19998C115.614 6.19349 116.435 6.39718 117.168 6.7922C117.827 7.16914 118.368 7.72263 118.729 8.39025C119.071 9.04163 119.327 9.7351 119.49 10.453C119.662 11.2193 119.744 12.0032 119.735 12.7886M118.372 12.7886C118.37 12.4699 118.353 12.1516 118.32 11.8347C118.285 11.4995 118.243 11.1752 118.193 10.8616C118.132 10.5624 118.052 10.2675 117.953 9.97871C117.859 9.70145 117.737 9.4339 117.592 9.17972C117.065 8.13275 116.125 7.59384 114.772 7.56299C114.175 7.55067 113.586 7.70358 113.07 8.00485H113.08C112.857 8.15315 112.652 8.3265 112.469 8.52148C112.282 8.72314 112.121 8.94748 111.99 9.18925C111.844 9.43751 111.724 9.70046 111.633 9.97375C111.535 10.2662 111.463 10.5665 111.417 10.8712C111.141 12.1157 111.141 13.4055 111.417 14.6499C111.464 14.9532 111.538 15.2518 111.637 15.5424C111.734 15.8248 111.856 16.0984 111.999 16.3601C112.243 16.8397 112.613 17.243 113.07 17.5258C113.304 17.6894 113.565 17.8103 113.842 17.883C114.149 17.961 114.465 17.9988 114.781 17.9955C115.103 17.9989 115.423 17.9611 115.735 17.883C116.008 17.8134 116.265 17.6922 116.492 17.5258C116.722 17.3877 116.933 17.2185 117.117 17.0229C117.302 16.8224 117.461 16.5998 117.592 16.3601C117.743 16.1013 117.865 15.8272 117.958 15.5424C118.053 15.2495 118.132 14.9516 118.193 14.6499C118.243 14.3364 118.285 14.023 118.32 13.7097C118.354 13.4038 118.371 13.0963 118.372 12.7886" fill="#87888A"/>
<path d="M130.247 12.7886C130.258 13.5694 130.176 14.3486 130.003 15.1101C129.841 15.8178 129.585 16.5006 129.241 17.1404C128.888 17.8192 128.348 18.3831 127.686 18.7663C126.952 19.1673 126.13 19.3774 125.294 19.3772C124.469 19.3757 123.657 19.1656 122.935 18.7663C122.276 18.3841 121.739 17.8237 121.384 17.1496C121.035 16.5057 120.772 15.8184 120.604 15.1055C120.425 14.3464 120.34 13.5683 120.35 12.7886C120.34 12.0042 120.425 11.2214 120.604 10.4575C120.773 9.7404 121.035 9.04847 121.384 8.39937C121.738 7.72689 122.276 7.16931 122.935 6.7922C123.659 6.3992 124.47 6.19549 125.294 6.19998C126.127 6.19349 126.948 6.39718 127.681 6.7922C128.34 7.16914 128.88 7.72263 129.241 8.39025C129.584 9.04163 129.84 9.7351 130.003 10.453C130.175 11.2193 130.257 12.0032 130.247 12.7886M128.884 12.7886C128.883 12.4699 128.866 12.1516 128.833 11.8347C128.798 11.4995 128.756 11.1752 128.706 10.8616C128.645 10.5624 128.565 10.2675 128.466 9.97871C128.371 9.70145 128.25 9.4339 128.104 9.17972C127.577 8.13275 126.637 7.59384 125.285 7.56299C124.688 7.55067 124.099 7.70358 123.583 8.00485H123.593C123.37 8.15315 123.165 8.32649 122.982 8.52148C122.795 8.72314 122.634 8.94748 122.503 9.18925C122.356 9.43751 122.237 9.70046 122.145 9.97375C122.048 10.2662 121.976 10.5665 121.929 10.8712C121.654 12.1157 121.654 13.4055 121.929 14.6499C121.977 14.9532 122.051 15.2518 122.15 15.5424C122.247 15.8248 122.368 16.0984 122.512 16.3601C122.755 16.8397 123.126 17.243 123.583 17.5258C123.817 17.6894 124.078 17.8103 124.354 17.883C124.661 17.961 124.977 17.9988 125.294 17.9955C125.616 17.9989 125.936 17.9611 126.248 17.883C126.521 17.8134 126.777 17.6922 127.004 17.5258C127.235 17.3877 127.445 17.2185 127.63 17.0229C127.815 16.8224 127.974 16.5998 128.104 16.3601C128.255 16.1013 128.378 15.8272 128.471 15.5424C128.566 15.2495 128.644 14.9516 128.706 14.6499C128.756 14.3364 128.798 14.023 128.833 13.7097C128.867 13.4038 128.884 13.0963 128.884 12.7886" fill="#87888A"/>
<path d="M19.8336 4.34006C15.9789 0.39606 10.0817 -0.300814 5.3578 2.49203C-0.155603 5.75205 -1.52232 13.0965 1.76305 18.3873C1.84029 18.5118 2.25185 18.3923 2.20367 18.2336C1.67187 16.5432 1.53866 14.7526 1.81447 13.0021C2.09027 11.2516 2.7676 9.58873 3.79341 8.14372C4.55952 6.8528 5.5797 5.73083 6.79215 4.84576C8.00461 3.96069 9.3841 3.33093 10.8471 2.99465C12.3101 2.65836 13.8261 2.62254 15.3033 2.88935C16.7805 3.15617 18.1882 3.72006 19.4411 4.54689C19.5462 4.61499 19.9686 4.47835 19.8336 4.34006" fill="#218455"/>
<path d="M20.3608 2.73329C18.6552 1.71169 16.3882 2.07547 14.5991 2.61535C14.5866 2.6191 14.5779 2.62409 14.5667 2.62822C14.5576 2.63073 14.5476 2.63155 14.5389 2.63446C10.2493 4.12825 5.38794 8.22676 5.75547 13.2136C5.76544 13.3494 6.18031 13.2219 6.2123 13.1189C7.21771 9.87214 9.81204 7.37958 12.7602 5.82596C15.722 4.26489 20.8936 3.78231 21.6262 8.04736C21.6499 8.18358 22.0569 8.06107 22.0826 7.95226C22.5693 5.89948 22.2907 3.88905 20.3608 2.73329" fill="#AECCBA"/>
<path d="M20.4943 8.58819C20.1716 8.20737 20.0761 8.09859 19.7347 7.73728C19.6235 7.61934 19.2086 7.72649 19.3228 7.91626C20.366 9.62021 20.8708 11.5993 20.771 13.5948C20.6712 15.5902 19.9715 17.5091 18.7634 19.1005C17.2791 21.0947 14.9531 22.3057 12.5365 22.6965C9.98164 23.1092 7.48824 22.1371 5.22366 21.0615C5.08122 20.9938 4.71077 21.108 4.88146 21.2994C8.29308 25.1209 14.3235 26.0628 18.5184 22.8754C19.5959 22.0744 20.5031 21.0668 21.187 19.9115C21.8709 18.7561 22.3179 17.4761 22.5018 16.1461C22.6858 14.8161 22.603 13.4629 22.2583 12.1652C21.9136 10.8676 21.314 9.65159 20.4943 8.58819Z" fill="#87888A"/>
<path d="M17.7004 12.5191C17.6746 12.3762 17.2606 12.429 17.2352 12.5556C16.7311 15.1176 15.1708 17.2484 13.2314 18.9399C10.7251 21.1252 5.07262 23.227 3.76446 18.7867C3.71836 18.6293 3.31428 18.7011 3.29518 18.8523C2.7254 23.3918 6.67274 24.4882 10.2779 23.1871C14.1002 21.8075 17.7681 17.7223 17.8279 13.537C17.8229 13.194 17.7802 12.8527 17.7004 12.5191Z" fill="#C7C7C8"/>
</svg>
