<svg xmlns="http://www.w3.org/2000/svg" width="206.792" height="37.254" viewBox="0 0 206.792 37.254">
  <g id="Group_7079" data-name="Group 7079" transform="translate(-84.102 -27.727)">
    <g id="Logo" transform="translate(84.101 27.739)">
      <path id="Path_369" data-name="Path 369" d="M528.781,487.472c-.241.309-.572.712-1.054,1.268l-.046.059a8.94,8.94,0,0,1-3.651,2.367,14.43,14.43,0,0,1,1.356-3.931c.217-.467.432-.89.643-1.277a3.98,3.98,0,0,0,2.751,1.514m-30.531-1.955a9.167,9.167,0,0,0-.192-1.357c2.522-.887,2.933-2.42.192,1.357m-5.1-10.222a2.12,2.12,0,0,1-.911,1.872c-.038.017-.1.056-.216.1l1.1-2.484a3.564,3.564,0,0,1,.031.507m-15.086,4.438a2.026,2.026,0,0,1-.241-.062,2.651,2.651,0,0,1-.058-.572c-.015-1.728.932-3.424,2.876-5.172a10.9,10.9,0,0,1,5.7-2.747l-6.5,9.187a6.2,6.2,0,0,0-1.78-.633m190.977.891a3.451,3.451,0,0,0,1.448-3.249c-.36-1.694-2.158-2.371-3.025-2.7a4.066,4.066,0,0,0-1.42-.25c-3.711,0-8.094,4.8-8.144,4.845l-.032.037c-.876,1.01-1.774,2.051-2.608,3.025a.722.722,0,0,1,.041-.078,4.146,4.146,0,0,0,.467-3.67c-1.586-3.445-9.376-3.482-9.7-3.482-.374,0-.726.012-1.051.035a10.6,10.6,0,0,0-2.589.516,12.394,12.394,0,0,0-4.974,2.973c-.444.414-.889.855-1.33,1.326a3.147,3.147,0,0,0,.024-.388,3.341,3.341,0,0,0-.476-1.778l-.062-.092a6.424,6.424,0,0,0-4.712-2.588h-.1c-.925.028-1.779.424-4.323,2.608l-.029-.04a6.8,6.8,0,0,0-4.871-2.59h-.054c-2.034,0-3.8,1.379-5.544,3.412a6.034,6.034,0,0,0-3.735-3.556,2.578,2.578,0,0,0-.651-.081,4.245,4.245,0,0,0-3.181,1.9l-.069.094c-.936,1.2-1.861,2.37-2.763,3.482a3.571,3.571,0,0,0,.077-1.036c-.214-2.6-3.683-3.409-4.985-3.711a26.185,26.185,0,0,0-5.126-.668,6.7,6.7,0,0,0-.7.035c-.2.027-.391.046-.581.064a9.41,9.41,0,0,0-2.031.361,11.664,11.664,0,0,0-4.208,2.317,4.273,4.273,0,0,0,.475-1.65,3.465,3.465,0,0,0-.357-1.681l-.062-.127L588,474.12a5.682,5.682,0,0,0-4.413-2.5c-1.2,0-2.437.641-4.558,2.656a4.742,4.742,0,0,0-.737-.93,6.076,6.076,0,0,0-3.86-1.8c-1.471,0-3.023,1.108-5.374,3.621-1.2-2.151-2.486-3.393-3.922-3.8a2.354,2.354,0,0,0-.7-.1,2.966,2.966,0,0,0-.409.026l-18.319.183,12.956,3.645-11.625.154,9.677,3.566-4.936.07a13.1,13.1,0,0,0-17.914-.928,5.948,5.948,0,0,0-2.588-2.327l-.1-.044a8.082,8.082,0,0,0-3.167-.637h-.093c-2.8.03-5.778,1.843-8.3,4.442a6.664,6.664,0,0,0-1-1.833,7.58,7.58,0,0,0-6.112-2.769,10.516,10.516,0,0,0-4.969,1.28,21.04,21.04,0,0,0-5.989,5.157,8.683,8.683,0,0,0,1.433-4.462,10.962,10.962,0,0,0-3.311-8.1,15.466,15.466,0,0,0-10.9-4.159h-.261a18.313,18.313,0,0,0-12.878,5.724c-2.919,3.134-4.373,6.37-4.322,9.618a7.471,7.471,0,0,0,4.13,6.707l-9.81,13.873,16.131.065,4.273-9.689a11.59,11.59,0,0,0-.289,2.435c.03,3.311,1.909,5.367,5.022,5.5,1.788.076,3.77-.715,6-2.432l.565-.422.3-.219a6.832,6.832,0,0,0,.921,1.587l.108.126a6.964,6.964,0,0,0,5.309,2.251c3.038,0,6.507-1.575,9.521-4.321.16-.148.3-.309.455-.46a7.124,7.124,0,0,0,2.912,3.845,6.541,6.541,0,0,0,3.852,1.17c3.926,0,8.207-2.919,10.966-5.594a12.915,12.915,0,0,0,17.387,3.888l-.566,1.059h9.89l2.059-2.7a3.6,3.6,0,0,0,.949,1.627,3.914,3.914,0,0,0,2.795,1.085,5.771,5.771,0,0,0,3.688-1.409,32.013,32.013,0,0,0,2.769-2.826c.308,2.417,2.079,3.862,4.734,3.862h.036a6.929,6.929,0,0,0,3.009-.7,13.577,13.577,0,0,0,2.54-1.709,5.318,5.318,0,0,0,.594.763l.052.056a5.449,5.449,0,0,0,3.968,1.633h.064a7.516,7.516,0,0,0,4.061-1.274q.381-.231.8-.514a4.292,4.292,0,0,0,.792.8,5.031,5.031,0,0,0,3.176,1.1,6.923,6.923,0,0,0,3.883-1.3,23.858,23.858,0,0,0,2.378-1.871,3.528,3.528,0,0,0,1.008,2.21,3.6,3.6,0,0,0,2.626,1,6.724,6.724,0,0,0,4.043-1.7q.472-.436,1.42-1.491a3.553,3.553,0,0,0,3.735,3.033,5.742,5.742,0,0,0,4.14-1.746l2.568-2.821a4.555,4.555,0,0,0,.043.619c.318,2.361,2.133,3.826,4.739,3.826h.1a7.308,7.308,0,0,0,2.95-.664,12.193,12.193,0,0,0,2.721-1.882,5.628,5.628,0,0,0,.826,1.08l.023.023a5.521,5.521,0,0,0,3.976,1.606h.059a8.1,8.1,0,0,0,4.126-1.255l.029-.014c.272-.167.557-.357.853-.565a4.056,4.056,0,0,0,.848.844,5.177,5.177,0,0,0,3.123,1.039h.074a7.116,7.116,0,0,0,3.877-1.284,27.982,27.982,0,0,0,3.687-3.06c.068.135.141.271.217.4,1.312,2.226,3.992,3.557,7.173,3.555h.154a8.9,8.9,0,0,0,4.437-1.27c4.907-2.86,6.257-8.148,3.554-13.845-.306-1.389.233-1.994,1.188-2.907" transform="translate(-464.403 -463.9)" fill="#12110c" fill-rule="evenodd"/>
      <path id="Path_370" data-name="Path 370" d="M525.809,486.007c-.117.151-.264.333-.449.557-.148.179-.346.411-.606.711h0l-.046.059-.008.007a7.949,7.949,0,0,1-1.789,1.521,8.93,8.93,0,0,1-2.186,1.063l-.948.276.121-.962a9.184,9.184,0,0,1,.461-1.8,24.749,24.749,0,0,1,.949-2.311h0c.118-.254.228-.481.332-.686s.212-.41.33-.627l.477-.878.611.794a3.214,3.214,0,0,0,1,.858,3.487,3.487,0,0,0,1.3.407l1.136.127Zm-2.061.473q.206-.237.4-.468a4.727,4.727,0,0,1-.72-.32,4.544,4.544,0,0,1-.724-.494q-.113.227-.216.448h0a23.654,23.654,0,0,0-.9,2.193c-.049.142-.093.276-.131.4.246-.131.5-.279.741-.437a6.727,6.727,0,0,0,1.483-1.239h0l.046-.059Zm-29.631-2.771q-.025-.345-.069-.656-.046-.327-.108-.605l-.123-.544.536-.189a7.618,7.618,0,0,0,1.787-.911c.162-.11.306-.207.432-.275l.953-1.46a8.512,8.512,0,0,0,.967-2.037,7.258,7.258,0,0,0,.365-2.092,10.338,10.338,0,0,0-3.126-7.648,13.2,13.2,0,0,0-4.619-2.924,16.375,16.375,0,0,0-5.822-1.044h-.238a18.409,18.409,0,0,0-6.825,1.544,17.486,17.486,0,0,0-5.6,3.973,17.14,17.14,0,0,0-3.161,4.6,10.709,10.709,0,0,0-.994,4.586,7.441,7.441,0,0,0,.549,2.779,6.2,6.2,0,0,0,1.517,2.154h0a7.522,7.522,0,0,0,.85.706,5.65,5.65,0,0,0,.846.5l.681.323-9.541,13.492,14.475.058,6.486-14.708-1.153,5.776c-.124.625-.2,1.1-.235,1.464a7.18,7.18,0,0,0-.045.844,5.169,5.169,0,0,0,1.19,3.524,4.462,4.462,0,0,0,3.213,1.35,6.121,6.121,0,0,0,2.561-.5,13.048,13.048,0,0,0,3.011-1.8h.008l.279-.209c.449-.335-.293.22.289-.213h0l.294-.218.675-.506.319.772a6.243,6.243,0,0,0,.369.751,6.154,6.154,0,0,0,.446.668h0l.1.111a6.063,6.063,0,0,0,2.128,1.518,6.879,6.879,0,0,0,2.7.518h0a11.016,11.016,0,0,0,4.5-1.074,17.861,17.861,0,0,0,4.583-3.078c.077-.071.155-.153.234-.235.063-.066.126-.132.2-.21l.755-.738.321,1a6.464,6.464,0,0,0,2.656,3.507l.015.013a5.591,5.591,0,0,0,1.606.785,6.415,6.415,0,0,0,1.869.264h0a11.282,11.282,0,0,0,5-1.391A23.691,23.691,0,0,0,527.74,492l.56-.544.436.643a12.525,12.525,0,0,0,4.443,4,12.1,12.1,0,0,0,5.719,1.447h0a12.4,12.4,0,0,0,3.3-.447,12.223,12.223,0,0,0,3.046-1.307l2-1.2-1.16,2.169h8.5l2.661-3.483.348,1.258a3.082,3.082,0,0,0,.307.735,2.863,2.863,0,0,0,.472.607h0a2.971,2.971,0,0,0,1.026.658,3.6,3.6,0,0,0,1.307.235h0a4.864,4.864,0,0,0,1.722-.332,5.1,5.1,0,0,0,1.535-.915h0c.425-.371.864-.793,1.311-1.253s.928-.982,1.4-1.514l.953-1.076.18,1.414a3.621,3.621,0,0,0,1.256,2.427,4.4,4.4,0,0,0,2.834.875h.033a6.343,6.343,0,0,0,2.725-.637h0a9,9,0,0,0,1.1-.648c.424-.286.866-.619,1.3-.979l.567-.465.4.614c.083.128.165.245.247.351s.17.208.275.32l.055.059a4.76,4.76,0,0,0,1.572,1.058,5.013,5.013,0,0,0,1.916.366h.056a6.562,6.562,0,0,0,1.9-.3,7.389,7.389,0,0,0,1.815-.867l.018-.01c.132-.079.259-.159.383-.238.08-.052.207-.137.384-.258l.515-.351.375.5a3.589,3.589,0,0,0,.309.356,3.839,3.839,0,0,0,.364.323h0a4.526,4.526,0,0,0,1.311.723,4.423,4.423,0,0,0,1.461.24,5.457,5.457,0,0,0,1.739-.291,7.41,7.41,0,0,0,1.778-.9h0q.6-.412,1.186-.875t1.12-.942l.945-.842.135,1.245a3.387,3.387,0,0,0,.273,1.043,2.62,2.62,0,0,0,.55.786h0a2.7,2.7,0,0,0,.943.6,3.4,3.4,0,0,0,1.222.21,4.89,4.89,0,0,0,1.827-.421,6.192,6.192,0,0,0,1.766-1.1l.005,0q.22-.2.561-.561.374-.393.82-.888l.913-1.014.211,1.337a2.868,2.868,0,0,0,1.008,1.817,3.259,3.259,0,0,0,2.087.676h0A5.7,5.7,0,0,0,612.2,496a3.815,3.815,0,0,0,1.5-1.045l.026-.032,3.7-4.067v1.669a2.482,2.482,0,0,0,.009.268c.007.1.016.186.027.266h0a3.6,3.6,0,0,0,1.281,2.391,4.413,4.413,0,0,0,2.817.881h.1a6.487,6.487,0,0,0,1.35-.159,7.1,7.1,0,0,0,1.331-.447,6.07,6.07,0,0,0,.894-.508,19.812,19.812,0,0,0,1.678-1.28l.59-.492.388.656a5.059,5.059,0,0,0,.359.532,4.743,4.743,0,0,0,.374.427l.023.024a4.815,4.815,0,0,0,1.586,1.05,5.113,5.113,0,0,0,1.923.359h.053a6.737,6.737,0,0,0,1.892-.3,8.378,8.378,0,0,0,1.9-.861l.033-.02.021-.01c.1-.064.226-.143.366-.236q.255-.168.424-.288l.52-.367.38.506a3.624,3.624,0,0,0,.335.387,3.379,3.379,0,0,0,.379.325h.005a4.516,4.516,0,0,0,2.73.907h.073a5.891,5.891,0,0,0,1.766-.3,7.226,7.226,0,0,0,1.747-.869h0a18.851,18.851,0,0,0,1.636-1.232q.906-.753,1.96-1.756l.639-.607.393.782c.03.059.062.122.1.187l.1.187h0a6.165,6.165,0,0,0,2.614,2.358,8.983,8.983,0,0,0,3.994.874h.146a7.921,7.921,0,0,0,2.094-.308,8.789,8.789,0,0,0,2.019-.873h0a8.859,8.859,0,0,0,4.331-5.463,11.178,11.178,0,0,0-1.036-7.569l-.031-.066-.014-.066a2.942,2.942,0,0,1,.171-2.042,5.368,5.368,0,0,1,1.2-1.453,5.642,5.642,0,0,0,1.005-1.157,2.043,2.043,0,0,0,.261-1.508h0a2.437,2.437,0,0,0-1.064-1.474,6.989,6.989,0,0,0-1.558-.757h0a3.353,3.353,0,0,0-.575-.156,3.568,3.568,0,0,0-.614-.05h0c-3.3,0-7.344,4.3-7.649,4.622l-.019.02-.014.016h0c-.438.5-.881,1.017-1.319,1.526l-1.286,1.5-3.053,3.566,1.965-4.235.038-.073q.013-.025.027-.048h0a3.6,3.6,0,0,0,.443-3.1,4.766,4.766,0,0,0-2.867-2.13,21.382,21.382,0,0,0-6.246-.976h0c-.171,0-.343,0-.515.008-.145,0-.307.014-.485.026h0a10.351,10.351,0,0,0-1.222.162,10.689,10.689,0,0,0-1.215.324l-.023.005a9.719,9.719,0,0,0-2.335,1.024,14.932,14.932,0,0,0-2.379,1.8q-.327.3-.646.621t-.649.67L631.746,480l.247-1.967c.009-.071.014-.124.016-.163s0-.086,0-.149h0a2.87,2.87,0,0,0-.1-.766,2.63,2.63,0,0,0-.279-.663l-.059-.088h0a5.3,5.3,0,0,0-1.841-1.6,5.184,5.184,0,0,0-2.328-.7h-.086a2.478,2.478,0,0,0-1.243.408,19.779,19.779,0,0,0-2.672,2.043l-.541.465-.444-.617-.01-.015a5.116,5.116,0,0,0-1.847-1.562,5.97,5.97,0,0,0-2.484-.746h-.054a4.57,4.57,0,0,0-2.522.834,12.5,12.5,0,0,0-2.525,2.35l-.705.824-.4-1.005a5.907,5.907,0,0,0-1.4-2.052,4.471,4.471,0,0,0-1.9-1.117,1.813,1.813,0,0,0-.23-.046,2.128,2.128,0,0,0-.254-.013h0a2.474,2.474,0,0,0-1.279.386,5.433,5.433,0,0,0-1.381,1.261l-.065.089-.01.015c-.522.669-.994,1.271-1.4,1.779-.432.545-.887,1.113-1.373,1.713l-1.695,2.1.571-2.637a3.235,3.235,0,0,0,.063-.426,2.836,2.836,0,0,0,0-.429c-.176-2.139-3.31-2.868-4.488-3.142h0c-.87-.2-1.775-.358-2.6-.465a19.86,19.86,0,0,0-2.378-.185h0c-.112,0-.227,0-.342.01-.1.005-.194.013-.283.022-.186.024-.356.042-.524.059l-.065.007c-.3.029-.618.061-.94.111a6.248,6.248,0,0,0-.952.222h-.015a10.408,10.408,0,0,0-2.047.861,11.979,11.979,0,0,0-1.928,1.332l-2.136,1.794,1.123-2.53a6.662,6.662,0,0,0,.334-.878,2.145,2.145,0,0,0,.089-.535h0a3.011,3.011,0,0,0-.062-.723,2.8,2.8,0,0,0-.232-.661V472.8l-.053-.11-.041-.067h0a5.219,5.219,0,0,0-1.753-1.6,4.39,4.39,0,0,0-2.117-.611,3.18,3.18,0,0,0-1.609.485,13.731,13.731,0,0,0-2.5,1.989l-.6.566-.417-.7a3.617,3.617,0,0,0-.277-.4,4.766,4.766,0,0,0-.36-.4,6.327,6.327,0,0,0-1.722-1.187,4.074,4.074,0,0,0-1.678-.422,3.575,3.575,0,0,0-1.987.754,18.836,18.836,0,0,0-2.911,2.661l-.61.652-.435-.778a10.363,10.363,0,0,0-1.759-2.4,4.211,4.211,0,0,0-1.773-1.086h-.017a1.594,1.594,0,0,0-.239-.055,1.8,1.8,0,0,0-.265-.018h0c-.045,0-.1,0-.165.006s-.114.009-.159.015h-.035l-13.923.139,12.906,3.631-12.584.168,9.67,3.563-8.644.122-.2-.2a12.252,12.252,0,0,0-8.93-3.823,12.643,12.643,0,0,0-4.335.754,12.141,12.141,0,0,0-3.748,2.186l-.591.506-.4-.665a5.129,5.129,0,0,0-.981-1.192,5.611,5.611,0,0,0-1.331-.882h0l-.083-.037h0a7.328,7.328,0,0,0-1.4-.431,7.587,7.587,0,0,0-1.5-.145h-.088a8.311,8.311,0,0,0-3.78,1.09,16.9,16.9,0,0,0-4.052,3.156l-.726.749-.354-.975a6.46,6.46,0,0,0-.4-.887,5.6,5.6,0,0,0-.505-.772h0a6.211,6.211,0,0,0-2.372-1.85,7.808,7.808,0,0,0-3.223-.665h0a9.514,9.514,0,0,0-2.372.306,10.186,10.186,0,0,0-2.285.9h-.01a14.322,14.322,0,0,0-2.756,1.908,29.567,29.567,0,0,0-3.041,3.1l-1.268,1.468c-.008.2-.117.333-.311.564-.248.3-.8.948-1.694,2.185l-1.048,1.443-.043-.606-1.907,2.208,1.861-2.85Zm-3.8-10.259a3.261,3.261,0,0,1-.3,1.395,2.391,2.391,0,0,1-.912,1.009l-.042.026-.044.019-.019.009c-.056.029-.13.067-.189.093l-1.525.677,2.685-6.083.311,2.259c.014.1.024.2.029.3s.007.184.006.29Zm-15.879,5.05-.153-.033a1.728,1.728,0,0,1-.17-.05l-.328-.119-.08-.333a2.555,2.555,0,0,1-.054-.337c-.01-.1-.017-.222-.02-.372h0a5.758,5.758,0,0,1,.782-2.887,10.952,10.952,0,0,1,2.3-2.758l.008-.005a12.786,12.786,0,0,1,2.878-1.934,10.83,10.83,0,0,1,3.158-.97l1.479-.217-7.691,10.879-.518-.3a3.968,3.968,0,0,0-.668-.3,8.052,8.052,0,0,0-.925-.258Zm.488-1.26a4.546,4.546,0,0,1,.625-2.269,9.745,9.745,0,0,1,2.044-2.43h0a11.473,11.473,0,0,1,2.577-1.734,9.6,9.6,0,0,1,1.189-.479l-5.213,7.372q-.166-.07-.344-.134a8.763,8.763,0,0,0-.876-.255Zm192.3.557a3.24,3.24,0,0,0,.407-2.4h0a3.662,3.662,0,0,0-1.581-2.248,8.043,8.043,0,0,0-1.847-.911h0a4.592,4.592,0,0,0-.806-.217,4.853,4.853,0,0,0-.842-.075h0c-3.874,0-8.27,4.676-8.6,5.029h0l-.035.036-.034.039-.683.788a3.568,3.568,0,0,0-.331-1.363,5.951,5.951,0,0,0-3.6-2.8,22.811,22.811,0,0,0-6.692-1.056h0c-.2,0-.383,0-.555.008-.211.007-.391.016-.542.027h0a11.552,11.552,0,0,0-1.374.187,11.93,11.93,0,0,0-1.368.359h0a11.037,11.037,0,0,0-2.627,1.152,16.178,16.178,0,0,0-2.586,1.959l-.005.005q-.171.158-.343.325l-.006-.021a3.85,3.85,0,0,0-.428-1.007l-.015-.024-.061-.092h0a7.067,7.067,0,0,0-5.252-2.874H627.3a3.686,3.686,0,0,0-1.867.582,17.9,17.9,0,0,0-2.342,1.739,6.853,6.853,0,0,0-1.9-1.449,7.325,7.325,0,0,0-3.1-.894h-.059a5.849,5.849,0,0,0-3.242,1.053,12.111,12.111,0,0,0-2.144,1.857,7.334,7.334,0,0,0-1.26-1.6,5.773,5.773,0,0,0-2.466-1.435,3.067,3.067,0,0,0-.4-.075,3.452,3.452,0,0,0-.417-.028h0a3.756,3.756,0,0,0-1.953.57,6.727,6.727,0,0,0-1.735,1.576l-.018.023-.058.079h0c-.414.531-.872,1.114-1.392,1.769l-.256.323c-.716-2.512-4.043-3.286-5.358-3.591h0c-.889-.206-1.843-.369-2.73-.484a21.34,21.34,0,0,0-2.546-.2h0c-.158,0-.292,0-.408.009s-.246.017-.354.027h-.021c-.165.021-.332.039-.5.056l-.062.006h0c-.315.03-.652.064-1.013.121a7.59,7.59,0,0,0-1.155.267h0a11.664,11.664,0,0,0-2.29.961c-.2.11-.4.226-.594.349v-.02a4.23,4.23,0,0,0-.088-1.021,4.033,4.033,0,0,0-.333-.958h0l-.067-.137-.1-.165-.01-.02a6.522,6.522,0,0,0-2.19-2,5.718,5.718,0,0,0-2.766-.784,4.432,4.432,0,0,0-2.259.659,13.024,13.024,0,0,0-2.2,1.667c-.111-.131-.235-.268-.376-.408h0a7.653,7.653,0,0,0-2.083-1.443,5.386,5.386,0,0,0-2.236-.547,4.8,4.8,0,0,0-2.727.982,17.4,17.4,0,0,0-2.526,2.218,10.522,10.522,0,0,0-1.541-1.95,5.5,5.5,0,0,0-2.308-1.4,2.9,2.9,0,0,0-.442-.1,3.087,3.087,0,0,0-.453-.033h0c-.1,0-.18,0-.249.006s-.133.01-.209.02l-22.716.227,13.005,3.659-8.554.114a13.7,13.7,0,0,0-3.34-.411,13.969,13.969,0,0,0-4.787.838,13.466,13.466,0,0,0-3.581,1.96,6.389,6.389,0,0,0-.806-.871,6.879,6.879,0,0,0-1.64-1.091h-.015l-.1-.044-.012-.005a8.635,8.635,0,0,0-1.67-.516,8.88,8.88,0,0,0-1.753-.175h-.1a9.6,9.6,0,0,0-4.389,1.244,17.4,17.4,0,0,0-3.686,2.717c-.027-.053-.055-.106-.083-.158a6.879,6.879,0,0,0-.615-.943h0a7.494,7.494,0,0,0-2.863-2.238,9.114,9.114,0,0,0-3.766-.784h0a10.843,10.843,0,0,0-2.7.346,11.517,11.517,0,0,0-2.579,1.011h0a15.667,15.667,0,0,0-2.995,2.072q-.384.331-.775.7a8.041,8.041,0,0,0,.171-1.511,11.585,11.585,0,0,0-3.5-8.553,14.51,14.51,0,0,0-5.076-3.217,17.69,17.69,0,0,0-6.289-1.133H485a19.726,19.726,0,0,0-7.311,1.654,18.787,18.787,0,0,0-6.018,4.271l-.005.005a18.388,18.388,0,0,0-3.389,4.938,11.916,11.916,0,0,0-1.1,5.115h0a8.666,8.666,0,0,0,.645,3.242,7.445,7.445,0,0,0,1.821,2.591,8.883,8.883,0,0,0,.987.821c.128.09.256.176.386.257l-10.1,14.288,17.786.072,2.991-6.784a5.948,5.948,0,0,0,1.441,3.259,5.731,5.731,0,0,0,4.121,1.773,7.413,7.413,0,0,0,3.108-.59,14.3,14.3,0,0,0,3.321-1.976h0l.216-.162.09.159a7.371,7.371,0,0,0,.562.831l.017.025.121.141a7.344,7.344,0,0,0,2.584,1.836,8.176,8.176,0,0,0,3.209.628h0a12.323,12.323,0,0,0,5.04-1.188,19.038,19.038,0,0,0,4.686-3.09,7.741,7.741,0,0,0,.852,1.42,7.842,7.842,0,0,0,1.947,1.815h0a6.89,6.89,0,0,0,1.965.957,7.713,7.713,0,0,0,2.249.323h0a12.555,12.555,0,0,0,5.6-1.53,24.635,24.635,0,0,0,5.275-3.729,13.844,13.844,0,0,0,4.459,3.8,13.421,13.421,0,0,0,6.337,1.606h0a13.607,13.607,0,0,0,5.17-1.009l-.119.222h11.282l1.58-2.069a4.177,4.177,0,0,0,.645.815,4.274,4.274,0,0,0,1.469.949,4.937,4.937,0,0,0,1.784.324h0a6.19,6.19,0,0,0,2.188-.416,6.418,6.418,0,0,0,1.929-1.153h0c.441-.386.906-.833,1.387-1.327q.3-.31.611-.643a4.612,4.612,0,0,0,1.414,1.994,5.674,5.674,0,0,0,3.66,1.174h.036a7.52,7.52,0,0,0,3.291-.767h0a10.355,10.355,0,0,0,1.263-.736c.286-.193.576-.4.866-.624q.121.147.239.274l.052.056.013.012a6.052,6.052,0,0,0,2.016,1.364,6.323,6.323,0,0,0,2.418.465h.071a7.884,7.884,0,0,0,2.276-.362,8.655,8.655,0,0,0,2.135-1.016h0q.152-.092.321-.2l.02.02a5.1,5.1,0,0,0,.49.432h0a5.83,5.83,0,0,0,1.683.93,5.723,5.723,0,0,0,1.893.315,6.765,6.765,0,0,0,2.155-.36,8.69,8.69,0,0,0,2.093-1.05h.005q.665-.456,1.263-.929c.119-.094.237-.188.352-.283q.058.161.128.315a3.876,3.876,0,0,0,.814,1.164,4,4,0,0,0,1.391.895,4.7,4.7,0,0,0,1.693.3,6.2,6.2,0,0,0,2.334-.525,7.539,7.539,0,0,0,2.152-1.344q.253-.232.621-.62l.066-.069a3.979,3.979,0,0,0,1.11,1.435,4.553,4.553,0,0,0,2.914.97h0a7.044,7.044,0,0,0,2.641-.558,5.12,5.12,0,0,0,1.983-1.4h0l1.636-1.8a4.726,4.726,0,0,0,1.591,2.461,5.7,5.7,0,0,0,3.639,1.174h.108a7.8,7.8,0,0,0,1.632-.19,8.363,8.363,0,0,0,1.579-.532,7.313,7.313,0,0,0,1.082-.612c.332-.221.735-.514,1.229-.908l.031.04a6.073,6.073,0,0,0,.47.541l.028.029a6.107,6.107,0,0,0,2.023,1.338,6.415,6.415,0,0,0,2.415.458h.063a8.049,8.049,0,0,0,2.262-.354,9.68,9.68,0,0,0,2.165-.975l.037-.018.031-.019c.145-.089.275-.172.394-.25l.049.049a4.672,4.672,0,0,0,.521.446h0a5.843,5.843,0,0,0,3.516,1.171h.081a7.21,7.21,0,0,0,2.168-.37,8.544,8.544,0,0,0,2.066-1.023h0a20.133,20.133,0,0,0,1.748-1.313q.668-.556,1.42-1.248a7.514,7.514,0,0,0,2.968,2.561,10.282,10.282,0,0,0,4.577,1.008h.161a9.25,9.25,0,0,0,2.439-.357,10.1,10.1,0,0,0,2.32-1h0a10.107,10.107,0,0,0,4.929-6.248,12.361,12.361,0,0,0-1.084-8.341,1.732,1.732,0,0,1,.084-1.16,4.406,4.406,0,0,1,.935-1.1,6.645,6.645,0,0,0,1.223-1.431m-13.269-.824h0M549.8,476.411l-1.233.017q-.4-.408-.842-.782Z" transform="translate(-460.916 -462.05)" fill="#12100c" fill-rule="evenodd"/>
      <path id="Path_371" data-name="Path 371" d="M528.8,487.235c-.24.309-.571.712-1.054,1.268l-.046.059a8.947,8.947,0,0,1-3.651,2.367A14.4,14.4,0,0,1,525.407,487c.217-.467.432-.89.643-1.278a3.982,3.982,0,0,0,2.751,1.514m-28.457-4.724c-.723.916-1.41,1.853-2.074,2.769a9.143,9.143,0,0,0-.192-1.357,6.356,6.356,0,0,0,2.266-1.412m-7.171-7.453a2.121,2.121,0,0,1-.911,1.872c-.038.016-.105.056-.216.1l1.1-2.483a3.543,3.543,0,0,1,.031.507M478.088,479.5a2.118,2.118,0,0,1-.242-.062,2.69,2.69,0,0,1-.058-.572c-.015-1.728.932-3.424,2.877-5.173a10.9,10.9,0,0,1,5.7-2.747l-6.5,9.187a6.2,6.2,0,0,0-1.78-.633m190.977.891a3.451,3.451,0,0,0,1.448-3.249c-.36-1.693-2.158-2.371-3.024-2.7a4.07,4.07,0,0,0-1.42-.25c-3.711,0-8.094,4.8-8.144,4.845l-.032.037c-.875,1.01-1.774,2.051-2.608,3.024a.627.627,0,0,1,.042-.078,4.147,4.147,0,0,0,.467-3.67c-1.586-3.445-9.376-3.482-9.7-3.482-.374,0-.725.012-1.05.034a10.64,10.64,0,0,0-2.589.517,12.4,12.4,0,0,0-4.974,2.973c-.444.414-.889.855-1.33,1.326a3.1,3.1,0,0,0,.025-.388,3.345,3.345,0,0,0-.476-1.778l-.062-.092a6.422,6.422,0,0,0-4.712-2.588h-.1c-.925.027-1.779.424-4.323,2.607l-.029-.04a6.8,6.8,0,0,0-4.871-2.59h-.054c-2.033,0-3.8,1.379-5.544,3.413a6.036,6.036,0,0,0-3.735-3.556,2.578,2.578,0,0,0-.652-.081,4.247,4.247,0,0,0-3.181,1.906l-.068.094c-.937,1.2-1.861,2.37-2.763,3.482a3.588,3.588,0,0,0,.077-1.037c-.214-2.6-3.683-3.408-4.986-3.711a26.212,26.212,0,0,0-5.126-.667,6.789,6.789,0,0,0-.7.035c-.2.027-.39.045-.581.065a9.406,9.406,0,0,0-2.031.361,11.652,11.652,0,0,0-4.207,2.317,4.285,4.285,0,0,0,.476-1.649,3.466,3.466,0,0,0-.357-1.681l-.062-.127-.078-.125a5.682,5.682,0,0,0-4.413-2.5c-1.2,0-2.436.641-4.557,2.656a4.727,4.727,0,0,0-.738-.93,6.072,6.072,0,0,0-3.86-1.8c-1.471,0-3.023,1.108-5.375,3.621-1.2-2.151-2.486-3.393-3.922-3.8a2.361,2.361,0,0,0-.7-.1,3.03,3.03,0,0,0-.409.025l-18.319.183,12.956,3.645-11.625.154,9.677,3.566-4.937.07a13.1,13.1,0,0,0-17.913-.928,5.953,5.953,0,0,0-2.588-2.327l-.1-.044a8.071,8.071,0,0,0-3.166-.637h-.093c-2.8.03-5.778,1.843-8.3,4.442a6.674,6.674,0,0,0-1-1.833,7.579,7.579,0,0,0-6.112-2.769,10.521,10.521,0,0,0-4.969,1.28,21.042,21.042,0,0,0-5.99,5.157,8.681,8.681,0,0,0,1.433-4.462,10.963,10.963,0,0,0-3.311-8.1,15.467,15.467,0,0,0-10.9-4.159h-.261a18.315,18.315,0,0,0-12.877,5.724c-2.919,3.135-4.373,6.371-4.322,9.618a7.471,7.471,0,0,0,4.13,6.708l-9.81,13.872,16.131.065,4.273-9.689a11.633,11.633,0,0,0-.29,2.435c.031,3.311,1.909,5.367,5.022,5.5,1.789.077,3.77-.714,6-2.431l.565-.422.3-.22a6.845,6.845,0,0,0,.921,1.587l.107.126A6.964,6.964,0,0,0,504,499.427c3.039,0,6.507-1.576,9.521-4.321.16-.148.3-.31.455-.46a7.124,7.124,0,0,0,2.912,3.845,6.544,6.544,0,0,0,3.852,1.17c3.926,0,8.207-2.919,10.966-5.6a12.915,12.915,0,0,0,17.388,3.888l-.566,1.059h9.889l2.059-2.7a3.6,3.6,0,0,0,.948,1.627,3.914,3.914,0,0,0,2.8,1.084,5.769,5.769,0,0,0,3.688-1.409,32.047,32.047,0,0,0,2.769-2.826c.308,2.417,2.079,3.862,4.734,3.862h.036a6.931,6.931,0,0,0,3.009-.7,13.6,13.6,0,0,0,2.54-1.709,5.3,5.3,0,0,0,.593.763l.052.056a5.451,5.451,0,0,0,3.96,1.639h.064a7.515,7.515,0,0,0,4.061-1.274q.381-.231.8-.514a4.284,4.284,0,0,0,.792.8,5.032,5.032,0,0,0,3.176,1.1,6.922,6.922,0,0,0,3.882-1.3,23.8,23.8,0,0,0,2.378-1.87,3.531,3.531,0,0,0,1.008,2.21,3.6,3.6,0,0,0,2.626,1.005,6.719,6.719,0,0,0,4.043-1.7q.472-.435,1.421-1.491a3.553,3.553,0,0,0,3.734,3.033,5.741,5.741,0,0,0,4.14-1.747l2.568-2.821a4.469,4.469,0,0,0,.044.619c.318,2.361,2.133,3.826,4.739,3.826h.1a7.314,7.314,0,0,0,2.95-.664,12.148,12.148,0,0,0,2.721-1.882,5.63,5.63,0,0,0,.826,1.08l.023.024a5.52,5.52,0,0,0,3.977,1.606h.058a8.1,8.1,0,0,0,4.126-1.255l.03-.014q.408-.25.852-.565a4.067,4.067,0,0,0,.849.844,5.175,5.175,0,0,0,3.123,1.039h.073a7.111,7.111,0,0,0,3.877-1.284,27.976,27.976,0,0,0,3.687-3.059c.068.135.141.271.218.4,1.312,2.226,3.992,3.557,7.172,3.555h.154a8.9,8.9,0,0,0,4.437-1.27c4.906-2.86,6.256-8.148,3.554-13.845-.306-1.389.233-1.994,1.188-2.907" transform="translate(-464.418 -463.724)" fill="#e78a3e" fill-rule="evenodd"/>
      <path id="Path_372" data-name="Path 372" d="M532.186,488.03l-.028.042c-.276.369-.649.88-1.553,1.929l-.04.05a8.718,8.718,0,0,1-4.489,2.637v-.2a12.881,12.881,0,0,1,1.423-4.467,21.568,21.568,0,0,1,1.045-1.981,3.478,3.478,0,0,0,3.287,1.984c.125,0,.249-.006.38-.017l-.021.022m-37.19-9.5a5.088,5.088,0,0,1-1.269.445l2-4.535a4.466,4.466,0,0,1,.4,1.84,2.543,2.543,0,0,1-1.132,2.25m-12.518,3.443a4.637,4.637,0,0,0-2-.823,2.655,2.655,0,0,1-.506-.153,2.225,2.225,0,0,1-.144-.911c-.018-1.862.975-3.67,3.023-5.513a11.226,11.226,0,0,1,6.947-2.961Zm188.8-.625a3.037,3.037,0,0,0,1.31-2.833c-.269-1.277-1.474-1.895-2.741-2.37a3.625,3.625,0,0,0-1.26-.22c-3.447,0-7.751,4.648-7.794,4.7l-.022.032c-1.327,1.53-2.706,3.126-3.817,4.438q-.6.706-1.2,1.392c.138-.269.266-.527.389-.776q.762-1.551,1.3-2.6a3.709,3.709,0,0,0,.466-3.286c-1.467-3.181-9.212-3.217-9.29-3.217-.361,0-.7.012-1.015.037a10.09,10.09,0,0,0-2.49.495,11.915,11.915,0,0,0-4.8,2.876,24.312,24.312,0,0,0-2.647,2.877,6.275,6.275,0,0,0,.573-2.271,2.886,2.886,0,0,0-.409-1.547l-.051-.074a6,6,0,0,0-4.332-2.387h-.087c-.857.025-1.72.471-4.483,2.883a3.358,3.358,0,0,0-.215-.438l-.05-.08a6.412,6.412,0,0,0-4.5-2.386h-.05c-2.065,0-3.891,1.614-5.737,3.919-.013-.064-.028-.125-.04-.187a5.577,5.577,0,0,0-3.611-3.887,2.172,2.172,0,0,0-.543-.07,3.833,3.833,0,0,0-2.829,1.751l-.055.072c-1.57,2.021-3.263,4.122-4.828,5.995.242-.494.456-.926.646-1.3l.034-.075a4.66,4.66,0,0,0,.642-2.411c-.16-2.026-2.563-2.833-4.635-3.315a25.732,25.732,0,0,0-5.018-.651,4.877,4.877,0,0,0-.637.033c-.2.023-.4.044-.592.062a8.718,8.718,0,0,0-1.943.343,11.63,11.63,0,0,0-4.687,2.791q-.636.6-1.256,1.294c1.271-2.45,1.6-3.216,1.62-3.859a3.154,3.154,0,0,0-.314-1.475l-.115-.2a5.175,5.175,0,0,0-4.029-2.3c-1.146,0-2.409.729-4.692,2.973a3.817,3.817,0,0,0-.929-1.38,5.587,5.587,0,0,0-3.532-1.661c-1.4,0-3.014,1.25-5.5,3.973a3.072,3.072,0,0,0-.2-.469c-1.143-2.085-2.4-3.329-3.719-3.706a1.931,1.931,0,0,0-.569-.083c-1.278,0-2.018,1.067-2.923,2.575-.612,1.025-1.381,2.454-2.352,4.361-1.4,2.751-3,6.09-4.447,9.114,0-.127.009-.248.009-.376a12.265,12.265,0,0,0-12.372-12.128,12.525,12.525,0,0,0-8.651,3.385,5.429,5.429,0,0,0-2.65-2.655l-.078-.038a7.66,7.66,0,0,0-2.989-.6h-.085c-2.841.027-5.95,2.084-8.5,4.915a6.38,6.38,0,0,0-1.161-2.485,7.116,7.116,0,0,0-5.75-2.592,9.949,9.949,0,0,0-4.75,1.233,21.649,21.649,0,0,0-6.378,5.664c-1.049,1.251-2,2.557-2.918,3.826l-.458.621c-.072.1-.142.2-.21.294a9.357,9.357,0,0,0-.29-3.047.144.144,0,0,0,.039-.01c3.029-.817,4.944-4.3,4.988-7.061a10.538,10.538,0,0,0-3.182-7.775,15.007,15.007,0,0,0-10.578-4.028h-.245a17.879,17.879,0,0,0-12.557,5.573c-2.837,3.051-4.253,6.182-4.2,9.313a6.794,6.794,0,0,0,2.125,5.07,6.277,6.277,0,0,0,2.247,1.445l-9.638,13.63,14.961.055,6.484-14.692c-1.582,5.224-1.754,7-1.747,7.887.034,3.089,1.7,4.932,4.586,5.059,1.679.074,3.557-.692,5.7-2.341.185-.136.373-.279.568-.42.257-.192.521-.388.793-.6a6.5,6.5,0,0,0,1.064,2.04l.086.1a6.514,6.514,0,0,0,4.969,2.1c2.879,0,6.319-1.573,9.2-4.2.356-.326.687-.666,1.014-1.015a6.722,6.722,0,0,0,2.93,4.362,6.071,6.071,0,0,0,3.589,1.087c3.99,0,8.38-3.147,11.046-5.86a12.452,12.452,0,0,0,18.739,3.017l-1.217,2.265h8.909l2.588-3.387a3.361,3.361,0,0,0,.973,2.45,3.458,3.458,0,0,0,2.471.953,5.286,5.286,0,0,0,3.382-1.3,37.205,37.205,0,0,0,3.537-3.715,4.761,4.761,0,0,0-.013,1.149c.273,2.183,1.876,3.489,4.318,3.489a6.449,6.449,0,0,0,2.811-.656,14.353,14.353,0,0,0,2.866-2,5.312,5.312,0,0,0,.8,1.157l.046.046a5.018,5.018,0,0,0,3.636,1.494h.059a7.056,7.056,0,0,0,3.82-1.2c.368-.219.749-.475,1.162-.778a3.723,3.723,0,0,0,.957,1.086,4.579,4.579,0,0,0,2.893,1.008,6.485,6.485,0,0,0,3.619-1.217,25.429,25.429,0,0,0,3.1-2.536,3.836,3.836,0,0,0-.031.42,3.326,3.326,0,0,0,.9,2.508,3.163,3.163,0,0,0,2.3.873,6.318,6.318,0,0,0,3.726-1.574c.419-.389,1.139-1.17,2.172-2.339a3.329,3.329,0,0,0-.035.651,3.144,3.144,0,0,0,3.334,3.108,5.327,5.327,0,0,0,3.792-1.589l3.515-3.865a5.755,5.755,0,0,0-.1,1.889c.286,2.153,1.89,3.441,4.289,3.441h.085a6.745,6.745,0,0,0,2.771-.621,12.66,12.66,0,0,0,3.056-2.188,5.315,5.315,0,0,0,1.027,1.5,5.1,5.1,0,0,0,3.651,1.473h.056a7.683,7.683,0,0,0,3.917-1.2q.574-.357,1.215-.828a3.594,3.594,0,0,0,.994,1.121,4.664,4.664,0,0,0,2.862.955h.061a6.657,6.657,0,0,0,3.629-1.206,29.849,29.849,0,0,0,4.11-3.476,5.316,5.316,0,0,0,.448.962c1.229,2.09,3.766,3.337,6.776,3.337h.152a8.41,8.41,0,0,0,4.206-1.209c4.7-2.734,5.974-7.825,3.361-13.312-.409-1.742.388-2.5,1.3-3.378" transform="translate(-466.912 -464.959)" fill="#1f1b18" fill-rule="evenodd"/>
      <path id="Path_373" data-name="Path 373" d="M532.067,487.972c-.025.038-.05.071-.077.107-.272.365-.653.876-1.5,1.864l-.039.049a8.453,8.453,0,0,1-2.165,1.734,6.208,6.208,0,0,1-2.343.913h-.026v-.225h0a6.734,6.734,0,0,1,.371-1.847,23.142,23.142,0,0,1,1.054-2.63q.257-.552.51-1.03c.182-.345.362-.663.536-.954l.025-.043.021.045a3.272,3.272,0,0,0,1.291,1.448,3.787,3.787,0,0,0,1.973.521h.187c.063,0,.124-.007.191-.013l.064-.005-.044.048-.019.021m-.07.012.013-.02-.134.008H531.7a3.84,3.84,0,0,1-2-.528,3.323,3.323,0,0,1-1.29-1.425q-.249.416-.51.91c-.168.319-.339.661-.509,1.027a23.149,23.149,0,0,0-1.052,2.625,6.7,6.7,0,0,0-.369,1.833v.172a6.254,6.254,0,0,0,2.294-.9,8.386,8.386,0,0,0,2.151-1.721l.04-.051c.85-.987,1.23-1.5,1.5-1.861Zm-37.121-9.512a2.99,2.99,0,0,1-.424.192,7.658,7.658,0,0,1-.852.256l-.051.012q1.022-2.318,2.045-4.635l.024.053a4.772,4.772,0,0,1,.3.927,4.151,4.151,0,0,1,.1.924,3.086,3.086,0,0,1-.3,1.354,2.234,2.234,0,0,1-.844.917Zm-.443.144a3,3,0,0,0,.416-.187,2.189,2.189,0,0,0,.825-.9,3.029,3.029,0,0,0,.294-1.332,4.066,4.066,0,0,0-.1-.913,4.722,4.722,0,0,0-.278-.864l-1.956,4.434a7.367,7.367,0,0,0,.8-.241m-12.105,3.3a3.084,3.084,0,0,0-.806-.466,7.2,7.2,0,0,0-1.179-.351c-.123-.028-.221-.054-.3-.078a1.664,1.664,0,0,1-.214-.078h-.008v-.008a1.386,1.386,0,0,1-.108-.387,3.567,3.567,0,0,1-.039-.535,5.586,5.586,0,0,1,.739-2.775,10.76,10.76,0,0,1,2.292-2.756h0a12.371,12.371,0,0,1,3.309-2.122,10.816,10.816,0,0,1,3.653-.845h.053q-3.686,5.212-7.37,10.427Zm-.786-.513a3.176,3.176,0,0,1,.8.456l7.277-10.3a10.747,10.747,0,0,0-3.583.838,12.336,12.336,0,0,0-3.3,2.113,10.712,10.712,0,0,0-2.281,2.742,5.534,5.534,0,0,0-.733,2.751,3.486,3.486,0,0,0,.039.527,1.378,1.378,0,0,0,.1.364,1.621,1.621,0,0,0,.2.072c.076.023.173.049.295.076a7.29,7.29,0,0,1,1.187.354m189.585-.149a5.754,5.754,0,0,0,1.008-1.158,2.205,2.205,0,0,0,.294-1.651,2.454,2.454,0,0,0-.987-1.471,6.925,6.925,0,0,0-1.738-.881,3.512,3.512,0,0,0-.608-.163,3.741,3.741,0,0,0-.643-.055c-3.415,0-7.68,4.584-7.774,4.684a.305.305,0,0,1-.023.034c-.663.765-1.34,1.547-1.989,2.3s-1.271,1.479-1.827,2.137l-.6.7q-.3.349-.6.691l-.137.157.094-.185c.069-.134.135-.265.2-.4s.128-.257.188-.38q.362-.738.662-1.339.348-.7.633-1.259h0a3.691,3.691,0,0,0,.466-3.265,4.975,4.975,0,0,0-3.049-2.241,22.486,22.486,0,0,0-6.218-.961q-.268,0-.52.009c-.17.006-.335.015-.494.028a10.285,10.285,0,0,0-1.242.164,10.971,10.971,0,0,0-1.242.329h0a9.827,9.827,0,0,0-2.39,1.048,15.108,15.108,0,0,0-2.4,1.822c-.454.416-.906.868-1.348,1.35s-.879.993-1.3,1.524l-.108.138.063-.162a10.33,10.33,0,0,0,.465-1.428,3.64,3.64,0,0,0,.107-.834,3.022,3.022,0,0,0-.1-.806,2.771,2.771,0,0,0-.309-.728l-.051-.073a5.523,5.523,0,0,0-1.9-1.654,5.352,5.352,0,0,0-2.409-.721h-.085a2.883,2.883,0,0,0-1.513.543,25.468,25.468,0,0,0-2.954,2.333l-.028.024-.013-.034c-.032-.076-.064-.15-.1-.222s-.073-.142-.114-.212l-.049-.08a5.3,5.3,0,0,0-1.908-1.608,6.221,6.221,0,0,0-2.571-.765h-.05a4.959,4.959,0,0,0-2.935,1.09,15.447,15.447,0,0,0-2.782,2.819l-.034.043-.011-.054-.016-.071c-.008-.037-.016-.074-.024-.115a5.648,5.648,0,0,0-1.367-2.455,4.789,4.789,0,0,0-2.225-1.413,2.119,2.119,0,0,0-.266-.052,2.162,2.162,0,0,0-.271-.017,2.66,2.66,0,0,0-1.407.436,5.7,5.7,0,0,0-1.4,1.3l-.055.072c-.782,1.006-1.6,2.035-2.411,3.046s-1.636,2.013-2.418,2.949l-.138.164.094-.191c.125-.255.24-.489.343-.694s.207-.414.3-.6l.034-.076a7.386,7.386,0,0,0,.481-1.148,3.329,3.329,0,0,0,.159-1.25,2.835,2.835,0,0,0-1.588-2.217,11.153,11.153,0,0,0-3.027-1.076c-.861-.2-1.769-.354-2.6-.463a20.219,20.219,0,0,0-2.408-.188c-.124,0-.238,0-.343.007s-.2.014-.291.025h0l-.3.033-.292.029c-.314.03-.631.061-.953.112a6.283,6.283,0,0,0-.983.23h0a10.634,10.634,0,0,0-2.421,1.065,13.074,13.074,0,0,0-2.256,1.72q-.321.3-.638.631t-.616.661l-.136.152.094-.181c.636-1.225,1.034-2.028,1.277-2.605a3.521,3.521,0,0,0,.341-1.243,3.326,3.326,0,0,0-.07-.763,3.042,3.042,0,0,0-.242-.7l-.114-.2a5.218,5.218,0,0,0-1.763-1.634,4.706,4.706,0,0,0-2.244-.655,3.564,3.564,0,0,0-1.905.641,17.176,17.176,0,0,0-2.768,2.324l-.029.029-.014-.038a3.258,3.258,0,0,0-.335-.658,4.395,4.395,0,0,0-.588-.712,6.454,6.454,0,0,0-1.74-1.207,4.268,4.268,0,0,0-1.775-.445,4.042,4.042,0,0,0-2.329.96,23.336,23.336,0,0,0-3.156,3l-.029.032-.014-.041c-.027-.08-.057-.158-.091-.235s-.07-.154-.112-.23A10.885,10.885,0,0,0,569.33,474a4.5,4.5,0,0,0-1.917-1.207h0a1.908,1.908,0,0,0-.276-.061,1.979,1.979,0,0,0-.285-.021,2.166,2.166,0,0,0-1.582.714,9.676,9.676,0,0,0-1.318,1.848c-.3.511-.651,1.125-1.041,1.849s-.824,1.556-1.31,2.51c-.7,1.376-1.452,2.9-2.208,4.455s-1.521,3.153-2.239,4.659l-.052.11v-.246c0-.082.006-.162.006-.25a11.947,11.947,0,0,0-3.62-8.554,12.435,12.435,0,0,0-8.727-3.548,12.791,12.791,0,0,0-4.671.871,12.263,12.263,0,0,0-3.961,2.507l-.026.025-.015-.033a5.253,5.253,0,0,0-1.066-1.539,5.671,5.671,0,0,0-1.571-1.1l-.077-.038a7.545,7.545,0,0,0-1.452-.446,7.767,7.767,0,0,0-1.527-.15h-.084a8.618,8.618,0,0,0-4.158,1.292,18.4,18.4,0,0,0-4.328,3.615l-.033.037-.011-.048a6.7,6.7,0,0,0-.454-1.321,6.072,6.072,0,0,0-.7-1.154,6.359,6.359,0,0,0-2.446-1.906,7.985,7.985,0,0,0-3.284-.675,9.643,9.643,0,0,0-2.424.313,10.169,10.169,0,0,0-2.313.917h0a14.706,14.706,0,0,0-3.039,2.142,32.6,32.6,0,0,0-3.331,3.515c-.524.625-1.023,1.264-1.506,1.9s-.951,1.285-1.411,1.918l-.458.621c-.043.061-.082.116-.122.171l-.088.124-.052.073V487.8a11.278,11.278,0,0,0-.03-1.63,7.748,7.748,0,0,0-.26-1.409l-.008-.027.036-.007a.082.082,0,0,0,.024-.006h0a6.314,6.314,0,0,0,3.435-2.55,8.3,8.3,0,0,0,1.534-4.487,10.515,10.515,0,0,0-3.175-7.757,13.4,13.4,0,0,0-4.692-2.968,16.534,16.534,0,0,0-5.868-1.052H490.9a18.563,18.563,0,0,0-6.879,1.554,17.694,17.694,0,0,0-5.659,4.011A17.348,17.348,0,0,0,475.2,476.1a10.859,10.859,0,0,0-1.018,4.674,7.594,7.594,0,0,0,.558,2.828,6.386,6.386,0,0,0,1.559,2.224,7.34,7.34,0,0,0,1.1.876,5.439,5.439,0,0,0,1.14.564l.032.01-9.629,13.617,14.9.055,6.648-15.065-.123.406c-.791,2.611-1.23,4.361-1.469,5.568a11.253,11.253,0,0,0-.277,2.311,5.338,5.338,0,0,0,1.219,3.624,4.616,4.616,0,0,0,3.343,1.41,6.275,6.275,0,0,0,2.665-.522,13.4,13.4,0,0,0,3.021-1.813h0l.213-.159c.117-.087.235-.175.354-.261l.05-.037c.238-.177.482-.359.742-.557l.03-.023.011.035a6.859,6.859,0,0,0,.449,1.081,6.225,6.225,0,0,0,.612.952l.085.1a6.212,6.212,0,0,0,2.193,1.558,7.043,7.043,0,0,0,2.756.533,11.257,11.257,0,0,0,4.586-1.111,18.081,18.081,0,0,0,4.6-3.081q.267-.243.517-.5c.167-.171.332-.341.5-.516l.034-.036.01.049a7.006,7.006,0,0,0,1.03,2.489,6.664,6.664,0,0,0,1.889,1.856h0a5.7,5.7,0,0,0,1.656.811,6.585,6.585,0,0,0,1.917.272,11.679,11.679,0,0,0,5.335-1.535,24.267,24.267,0,0,0,5.693-4.317l.024-.024.018.028a12.674,12.674,0,0,0,4.557,4.385,12.3,12.3,0,0,0,6.045,1.6,12.445,12.445,0,0,0,8.1-2.979l.1-.089-1.261,2.348h8.852l2.626-3.437v.075a3.761,3.761,0,0,0,.253,1.356,3.092,3.092,0,0,0,.712,1.076h0a3.138,3.138,0,0,0,1.092.7,3.786,3.786,0,0,0,1.361.244,5.024,5.024,0,0,0,1.782-.342,5.263,5.263,0,0,0,1.582-.947c.544-.475,1.12-1.044,1.714-1.674s1.206-1.321,1.82-2.039l.057-.066-.011.085a4.9,4.9,0,0,0-.042.65,4.75,4.75,0,0,0,.028.492,3.775,3.775,0,0,0,1.34,2.549,4.606,4.606,0,0,0,2.952.918,6.369,6.369,0,0,0,1.431-.167,6.555,6.555,0,0,0,1.369-.486,9.687,9.687,0,0,0,1.319-.792c.507-.354,1.031-.768,1.542-1.206l.025-.022.015.029a5.515,5.515,0,0,0,.366.608,5.157,5.157,0,0,0,.435.543l.045.045a4.984,4.984,0,0,0,1.646,1.107,5.153,5.153,0,0,0,1.971.379h.058a6.7,6.7,0,0,0,1.948-.31,7.608,7.608,0,0,0,1.858-.888h0c.183-.11.371-.228.563-.357s.391-.268.6-.419l.023-.018.015.025a3.574,3.574,0,0,0,.458.627,3.841,3.841,0,0,0,.492.452,4.693,4.693,0,0,0,1.358.752,4.59,4.59,0,0,0,1.52.252,5.618,5.618,0,0,0,1.8-.3,7.672,7.672,0,0,0,1.807-.909c.561-.384,1.1-.791,1.612-1.215s1.01-.866,1.489-1.318l.052-.05-.009.072c-.009.07-.016.14-.022.209s-.008.14-.009.208a4,4,0,0,0,.213,1.412,2.868,2.868,0,0,0,.679,1.078,2.9,2.9,0,0,0,.853.58,3.475,3.475,0,0,0,1.433.286,5.084,5.084,0,0,0,1.9-.443,6.423,6.423,0,0,0,1.808-1.123q.313-.29.854-.876t1.316-1.461l.059-.066-.014.087a3.124,3.124,0,0,0-.034.327c-.005.108-.005.215,0,.319a3.176,3.176,0,0,0,.973,2.234,3.36,3.36,0,0,0,2.335.849,5.9,5.9,0,0,0,2.181-.467,3.989,3.989,0,0,0,1.591-1.112c1.014-1.272,2.456-2.7,3.579-3.935l-.018.091a7.009,7.009,0,0,0-.133,1,4.609,4.609,0,0,0,.029.877,3.753,3.753,0,0,0,1.344,2.512,4.578,4.578,0,0,0,2.92.908h.085a6.612,6.612,0,0,0,1.4-.159,7.058,7.058,0,0,0,1.364-.459h0a12.693,12.693,0,0,0,3.044-2.182l.026-.023.014.032a5.371,5.371,0,0,0,.485.849,5.213,5.213,0,0,0,.537.648,5.033,5.033,0,0,0,1.655,1.092,5.257,5.257,0,0,0,1.978.373h.055a6.814,6.814,0,0,0,1.946-.308,8.815,8.815,0,0,0,1.958-.89q.286-.178.589-.384t.625-.443l.024-.018.014.026a3.488,3.488,0,0,0,.481.659,3.685,3.685,0,0,0,.507.454,4.636,4.636,0,0,0,2.846.95h.06a6.059,6.059,0,0,0,1.832-.315,7.416,7.416,0,0,0,1.782-.886,20.2,20.2,0,0,0,1.869-1.424q1.025-.866,2.238-2.049l.029-.029.014.038a5.391,5.391,0,0,0,.448.958,6.324,6.324,0,0,0,2.708,2.442,9.158,9.158,0,0,0,4.045.883h.152a8.037,8.037,0,0,0,2.139-.315,8.872,8.872,0,0,0,2.053-.891,9.006,9.006,0,0,0,4.41-5.6,11.37,11.37,0,0,0-1.059-7.675h0c-.41-1.75.385-2.513,1.3-3.393Zm1.052-1.132a2.251,2.251,0,0,0,.3-1.687,2.5,2.5,0,0,0-1.006-1.5,6.971,6.971,0,0,0-1.751-.889,3.579,3.579,0,0,0-.618-.166,3.762,3.762,0,0,0-.652-.056c-3.439,0-7.723,4.605-7.812,4.7a.324.324,0,0,0-.024.036c-.663.765-1.339,1.546-1.989,2.3s-1.274,1.483-1.828,2.137q-.3.355-.6.7l-.463.535.107-.211q.1-.191.188-.381c.232-.473.454-.921.662-1.339q.352-.707.633-1.259h0a3.727,3.727,0,0,0,.466-3.307,5.017,5.017,0,0,0-3.079-2.268,22.528,22.528,0,0,0-6.235-.964c-.18,0-.354,0-.521.009s-.338.016-.5.028a10.268,10.268,0,0,0-1.248.166,10.761,10.761,0,0,0-1.248.33,9.885,9.885,0,0,0-2.4,1.054,15.14,15.14,0,0,0-2.4,1.828c-.455.417-.908.871-1.352,1.353-.407.442-.806.909-1.193,1.394a9.8,9.8,0,0,0,.406-1.276,3.676,3.676,0,0,0,.108-.845,3.024,3.024,0,0,0-.1-.819,2.812,2.812,0,0,0-.314-.741l-.052-.075a5.574,5.574,0,0,0-1.919-1.67,5.4,5.4,0,0,0-2.434-.728h-.087a2.929,2.929,0,0,0-1.54.55,25.421,25.421,0,0,0-2.933,2.314q-.041-.1-.087-.192c-.036-.074-.075-.145-.116-.216a.919.919,0,0,0-.05-.081,5.356,5.356,0,0,0-1.927-1.626,6.28,6.28,0,0,0-2.595-.772h-.051a5.016,5.016,0,0,0-2.966,1.1,15.379,15.379,0,0,0-2.757,2.786v-.018c-.009-.039-.017-.079-.024-.114h0a5.7,5.7,0,0,0-1.379-2.478,4.843,4.843,0,0,0-2.25-1.428,2.173,2.173,0,0,0-.273-.053,2.151,2.151,0,0,0-.277-.018,2.707,2.707,0,0,0-1.435.445,5.741,5.741,0,0,0-1.415,1.316l-.056.072c-.784,1.01-1.6,2.037-2.409,3.045-.768.952-1.536,1.891-2.28,2.783.084-.171.166-.337.248-.5q.162-.326.3-.6l.034-.076a7.368,7.368,0,0,0,.484-1.155,3.364,3.364,0,0,0,.161-1.269,2.882,2.882,0,0,0-1.613-2.256,11.208,11.208,0,0,0-3.042-1.082c-.861-.2-1.772-.354-2.61-.463a20.158,20.158,0,0,0-2.414-.188c-.125,0-.24,0-.346.007s-.2.014-.294.025l-.3.034-.293.029c-.315.03-.632.061-.957.112a6.33,6.33,0,0,0-.991.232,10.668,10.668,0,0,0-2.433,1.07,13.125,13.125,0,0,0-2.266,1.727q-.322.305-.64.632-.243.25-.483.514c.582-1.127.955-1.882,1.187-2.432a3.533,3.533,0,0,0,.344-1.26h0a3.385,3.385,0,0,0-.07-.775,3.076,3.076,0,0,0-.247-.712l-.117-.2a5.274,5.274,0,0,0-1.781-1.65,4.762,4.762,0,0,0-2.27-.662,3.614,3.614,0,0,0-1.933.649,17.089,17.089,0,0,0-2.748,2.3,3.318,3.318,0,0,0-.326-.631,4.422,4.422,0,0,0-.6-.72,6.478,6.478,0,0,0-1.754-1.218,4.319,4.319,0,0,0-1.8-.451,4.09,4.09,0,0,0-2.36.971,23.225,23.225,0,0,0-3.134,2.978q-.035-.1-.078-.2c-.034-.078-.072-.156-.113-.234a10.968,10.968,0,0,0-1.794-2.5,4.555,4.555,0,0,0-1.939-1.22,1.97,1.97,0,0,0-.576-.084,2.215,2.215,0,0,0-1.619.729,9.712,9.712,0,0,0-1.326,1.858c-.307.513-.652,1.127-1.042,1.85s-.826,1.559-1.311,2.512c-.7,1.375-1.452,2.9-2.208,4.455-.733,1.509-1.477,3.063-2.186,4.548h0c0-.085.006-.169.006-.252a12,12,0,0,0-3.635-8.59,12.487,12.487,0,0,0-8.764-3.564,12.841,12.841,0,0,0-4.691.875,12.324,12.324,0,0,0-3.951,2.492,5.3,5.3,0,0,0-1.061-1.521,5.7,5.7,0,0,0-1.586-1.114l-.079-.039a7.609,7.609,0,0,0-1.462-.449,7.8,7.8,0,0,0-1.537-.151h-.085a8.671,8.671,0,0,0-4.184,1.3,18.436,18.436,0,0,0-4.306,3.589,6.724,6.724,0,0,0-.446-1.283,6.127,6.127,0,0,0-.709-1.164,6.407,6.407,0,0,0-2.465-1.921,8.024,8.024,0,0,0-3.3-.68,9.685,9.685,0,0,0-2.437.314,10.24,10.24,0,0,0-2.325.921,14.781,14.781,0,0,0-3.049,2.15,32.566,32.566,0,0,0-3.336,3.521c-.525.626-1.024,1.265-1.508,1.907s-.951,1.286-1.411,1.92l-.458.622c-.039.057-.081.114-.121.17l-.037.052a11.293,11.293,0,0,0-.034-1.55,7.856,7.856,0,0,0-.254-1.391l.015-.006a6.363,6.363,0,0,0,3.462-2.57,8.355,8.355,0,0,0,1.543-4.515,10.566,10.566,0,0,0-3.19-7.794,13.455,13.455,0,0,0-4.71-2.98,16.588,16.588,0,0,0-5.886-1.055c-.022.005-.209,0-.246,0a18.629,18.629,0,0,0-6.9,1.559,17.739,17.739,0,0,0-5.676,4.022h0a17.415,17.415,0,0,0-3.19,4.635,10.914,10.914,0,0,0-1.021,4.7,7.637,7.637,0,0,0,.562,2.846,6.429,6.429,0,0,0,1.571,2.242,7.374,7.374,0,0,0,1.1.882,5.492,5.492,0,0,0,1.119.557l-9.647,13.642q7.514.031,15.028.055l6.322-14.323c-.716,2.393-1.122,4.027-1.349,5.172a11.328,11.328,0,0,0-.278,2.322,5.384,5.384,0,0,0,1.231,3.657,4.665,4.665,0,0,0,3.38,1.427,6.329,6.329,0,0,0,2.688-.526,13.471,13.471,0,0,0,3.032-1.819l.214-.159c.116-.086.233-.174.354-.261l.05-.038c.235-.175.476-.354.713-.536a6.908,6.908,0,0,0,.441,1.054,6.254,6.254,0,0,0,.617.96c.029.034.06.07.087.1a6.269,6.269,0,0,0,2.211,1.571,7.092,7.092,0,0,0,2.777.537,11.314,11.314,0,0,0,4.608-1.116,18.112,18.112,0,0,0,4.614-3.09c.178-.162.35-.329.519-.5s.31-.318.462-.48a7.049,7.049,0,0,0,1.027,2.458,6.711,6.711,0,0,0,1.9,1.87,5.755,5.755,0,0,0,1.671.818,6.645,6.645,0,0,0,1.932.274,11.73,11.73,0,0,0,5.36-1.541,24.319,24.319,0,0,0,5.682-4.3,12.73,12.73,0,0,0,4.558,4.374,12.35,12.35,0,0,0,6.071,1.611,12.5,12.5,0,0,0,8.028-2.9L551.62,499.8h8.964l2.551-3.338a3.772,3.772,0,0,0,.255,1.3,3.139,3.139,0,0,0,.723,1.094,3.2,3.2,0,0,0,1.11.713,3.829,3.829,0,0,0,1.38.248,5.075,5.075,0,0,0,1.8-.346,5.315,5.315,0,0,0,1.6-.957c.545-.475,1.122-1.046,1.718-1.677.577-.612,1.171-1.281,1.766-1.976a4.752,4.752,0,0,0,0,1.07h0a3.824,3.824,0,0,0,1.359,2.583,4.656,4.656,0,0,0,2.985.929,6.489,6.489,0,0,0,1.443-.167,6.614,6.614,0,0,0,1.38-.491,9.705,9.705,0,0,0,1.326-.8c.5-.349,1.016-.756,1.52-1.188a5.541,5.541,0,0,0,.355.585,5.212,5.212,0,0,0,.439.549l.047.047A5.027,5.027,0,0,0,586,499.1a5.205,5.205,0,0,0,1.991.382h.059a6.736,6.736,0,0,0,1.963-.313,7.618,7.618,0,0,0,1.87-.894c.184-.109.372-.229.565-.358s.378-.259.576-.4a3.643,3.643,0,0,0,.45.611,3.917,3.917,0,0,0,.5.458,4.748,4.748,0,0,0,1.373.76,4.642,4.642,0,0,0,1.537.255,5.673,5.673,0,0,0,1.814-.307,7.675,7.675,0,0,0,1.82-.916h0c.562-.384,1.1-.793,1.615-1.218.5-.41.976-.836,1.44-1.272-.005.047-.01.094-.013.141-.006.07-.009.14-.01.211a4.052,4.052,0,0,0,.216,1.43,2.871,2.871,0,0,0,1.559,1.686,3.525,3.525,0,0,0,1.455.291,5.139,5.139,0,0,0,1.921-.447,6.473,6.473,0,0,0,1.823-1.133q.315-.293.857-.878.521-.563,1.259-1.4c-.011.083-.018.165-.022.247a2.927,2.927,0,0,0,0,.324,3.224,3.224,0,0,0,.988,2.268,3.41,3.41,0,0,0,2.371.863,5.957,5.957,0,0,0,2.2-.472,4.05,4.05,0,0,0,1.61-1.126l3.452-3.8a6.962,6.962,0,0,0-.116.92,4.618,4.618,0,0,0,.03.886,3.8,3.8,0,0,0,1.362,2.544,4.633,4.633,0,0,0,2.953.919h.086a6.658,6.658,0,0,0,1.408-.16,7.067,7.067,0,0,0,1.374-.463h0a12.649,12.649,0,0,0,3.03-2.167,5.389,5.389,0,0,0,.475.826,5.3,5.3,0,0,0,.542.654h0a5.093,5.093,0,0,0,1.672,1.1,5.3,5.3,0,0,0,2,.377h.055a6.882,6.882,0,0,0,1.961-.31,8.881,8.881,0,0,0,1.969-.9h0c.191-.119.388-.247.591-.386s.4-.274.6-.426a3.533,3.533,0,0,0,.473.643,3.714,3.714,0,0,0,.514.461,4.691,4.691,0,0,0,2.878.96h.061a6.12,6.12,0,0,0,1.848-.318,7.43,7.43,0,0,0,1.794-.893,20.232,20.232,0,0,0,1.873-1.427q1.014-.857,2.211-2.023.082.229.186.455.112.241.25.474a6.38,6.38,0,0,0,2.729,2.462,9.214,9.214,0,0,0,4.069.888h.152a8.087,8.087,0,0,0,2.153-.317,8.943,8.943,0,0,0,2.065-.9,9.054,9.054,0,0,0,4.432-5.636,11.417,11.417,0,0,0-1.06-7.7c-.4-1.721.382-2.475,1.287-3.343l.009-.009a5.753,5.753,0,0,0,1.017-1.169" transform="translate(-466.772 -464.884)" fill="#12110c" fill-rule="evenodd"/>
      <path id="Path_374" data-name="Path 374" d="M558.375,498.23l-3.782-2.7-3.78,2.7,1.456-4.357-3.791-2.688,4.676.009,1.44-4.365,1.436,4.365,4.678-.009-3.788,2.688Zm-3.883-15.174a10.417,10.417,0,0,0-10.555,10.055c-.229.31-.452.619-.678.922-.285.383-.683.941-1.673,2.082-1.81,2.249-7.816,5.47-7.751,1.3a14.1,14.1,0,0,1,1.592-5.188c1.618-3.467,3.5-5.593,4.671-5.6a2.24,2.24,0,0,1,1.242.371c-2.118.443-2.509,4.193.071,4.186,2.721-.008,4.868-5.727.983-7.591a5.734,5.734,0,0,0-2.33-.452c-6.571.073-16.747,15.141-9.784,19.673,3.816,2.739,10.781-2.466,13.532-5.963.02-.023.509-.664.524-.688a10.79,10.79,0,0,0,10.156,7.559,10.337,10.337,0,1,0,0-20.674M671.21,498.709a1.312,1.312,0,0,1-2.01-1.092c.142-1.612,2.766-1.143,3.676-1.036a4.48,4.48,0,0,1-1.666,2.128m-14.28-5.84a18.862,18.862,0,0,1-2.01,2.646c-1.06,1.135-1.884,1.707-2.415,1.707-.477,0-.733-.313-.732-.918,0-.922.775-2.5,2.278-4.72,1.976-2.871,3.3-4.3,4.034-4.3.538,0,.8.325.8,1,0,1.025-.647,2.562-1.952,4.586m-50.2-.162a23.034,23.034,0,0,1-2,2.685c-1.059,1.162-1.847,1.743-2.4,1.736-.452-.011-.691-.315-.685-.949.009-.94.777-2.542,2.25-4.79q2.887-4.387,3.938-4.384c.515,0,.787.336.784,1.04,0,1.041-.652,2.6-1.889,4.662m72.091-9.96c4.669,1.754-2.426,1.953-.957,7.513,2.024,4.116,1.848,8.6-2.555,11.167a6.534,6.534,0,0,1-3.3.955c-7.735.105-8.225-9.109,1.455-7.679a14.048,14.048,0,0,0,.159-3.62,11.293,11.293,0,0,1,.359-3.53,17.03,17.03,0,0,0-3.663,3.615c-2.167,2.534-3.643,4-3.766,4.137a47.622,47.622,0,0,1-7.02,6.56,4.86,4.86,0,0,1-2.635.9,2.8,2.8,0,0,1-1.784-.584,2.137,2.137,0,0,1-.809-1.849,5.1,5.1,0,0,1,.2-1.385,29.869,29.869,0,0,1-3.691,2.849,5.828,5.828,0,0,1-2.958.922,3.243,3.243,0,0,1-2.389-.94,4.6,4.6,0,0,1-1.005-3.9c-1.186,1.131-3.878,3.653-5.136,4.221a5.041,5.041,0,0,1-2.036.456c-1.525.022-2.37-.623-2.539-1.877-.314-2.251,2.641-7.269,3.768-9.474.34-.8.2-1.107-.063-.821L628.1,501.762c-.419.667-3.766,1.9-3.87-.467a3.634,3.634,0,0,1,.621-1.826c.623-1.135,4.875-8.353,4.662-9.036-.193-.636-8.879,9.819-10.5,11.321a4.5,4.5,0,0,1-2.471,1.081c-.948,0-1.392-.518-1.372-1.563a3.981,3.981,0,0,1,.636-1.821l4.582-9.478c-1.238,1.56-2.61,3.36-4.257,5.325a42.067,42.067,0,0,1-6.909,6.6,4.648,4.648,0,0,1-2.573.9,2.736,2.736,0,0,1-1.76-.624,2.191,2.191,0,0,1-.8-1.872,5.862,5.862,0,0,1,.223-1.419,24.355,24.355,0,0,1-3.659,2.878,5.238,5.238,0,0,1-2.854.921,3.17,3.17,0,0,1-2.37-.952,4.735,4.735,0,0,1-.979-3.719,18.154,18.154,0,0,1-4.851,4.162,4.712,4.712,0,0,1-2.016.471c-1.5,0-2.33-.627-2.494-1.918-.11-.945.382-2.73,1.524-5.31.713-1.507,1.425-3,2.156-4.5,1.077-3.126-5.961,7.529-10.232,11.258-1.259,1.1-3.8,1.4-3.786-.854a4.222,4.222,0,0,1,.64-1.834q.964-1.728,1.027-1.9c.536-1.011,1.069-2.071,1.638-3.175s1.162-2.274,1.737-3.5c1.008-3.054-7.3,8.057-7.513,8.339L569.41,503h-4.965c1.908-3.553,11.049-23.941,12.2-23.5,1.1.293,2.123,1.9,2.638,2.84.9,1.648-3.027,7.23-4.027,8.834.922-.968,1.765-1.838,2.511-2.607,1.209-1.227,7-8.79,8.832-8.79.961,0,2.824,1.236,2.81,2.2-.011.709-2.672,5.4-3.772,7.578,1.435-1.389,8.205-9.7,10.116-9.7a3.369,3.369,0,0,1,2.5,1.483,1.4,1.4,0,0,1,.128.643c-.022.69-2.775,5.546-4,8.127-.869,1.792-1.572,3.225-1.977,4.307-1.31,3.5,1.263,2.456,2.792.43.083-.227.171-.458.268-.689a25.432,25.432,0,0,1,5.647-8.262,9.767,9.767,0,0,1,3.98-2.378,11.637,11.637,0,0,1,2.2-.337c1.289-.16,8.115.7,8.241,2.3a3.784,3.784,0,0,1-.506,1.578c-.355.706-.8,1.6-1.3,2.665s-1.129,2.291-1.8,3.692c-5.4,11.159,10.388-9.21,10.388-9.21.608-.77,1.2-1.18,1.509-1.1a3.853,3.853,0,0,1,2.291,2.55,6.336,6.336,0,0,1-.01,2.963,13.336,13.336,0,0,1-1.473,2.724c1.43-1.519,8.007-8.042,9.067-8.023a4.562,4.562,0,0,1,3,1.586,1.219,1.219,0,0,1,.153.641,12.786,12.786,0,0,1-1.608,4.232c1.4-1.224,6.825-6.414,7.782-6.441a4.179,4.179,0,0,1,2.84,1.59,1.172,1.172,0,0,1,.154.619c0,.675-.625,2.255-1.89,4.772-.865,1.764-1.542,3.155-1.963,4.208a8.224,8.224,0,0,0-.644,2.074c-.008.248.082.381.259.383,1.267.016,2.912-1.684,3.667-2.617a24.759,24.759,0,0,1,5.719-8.109,10.186,10.186,0,0,1,4.091-2.473,8.415,8.415,0,0,1,2.095-.424c2.656-.2,7.791.615,8.492,2.135.2.436-.079,1.052-.431,1.752s-.8,1.575-1.31,2.618-1.159,2.262-1.849,3.637c-.657,1.248-1.572,4.416,1.209,2.4a39.857,39.857,0,0,0,4.5-4.737c1.048-1.232,2.323-2.706,3.808-4.422,1.21-1.338,5.091-4.721,7.034-3.991m-154.813,10.3c-1.722,2.39-4.207,4.522-5.694,3.841-.892-.407.126-2.817,1.7-5.08,1.63-2.339,3.85-4.515,5.158-4.149,1.483.416.529,3.029-1.167,5.388m-3.552-9.174c4.556-2.473,10.829-.483,8.76,6.687a20.526,20.526,0,0,1-5.453,8.943c-3.774,3.434-8.893,5.164-11.571,2.221a5.985,5.985,0,0,1-1.078-3.82,10.344,10.344,0,0,1,.141-1.265c-.319.375-.645.832-1.075,1.285a22.321,22.321,0,0,1-2.979,2.448c-1.79,1.372-3.29,2.018-4.5,1.967-1.876-.082-2.818-1.16-2.837-3.289-.012-1.184.543-3.649,1.685-7.419a8.451,8.451,0,0,0,.437-2.217,1.348,1.348,0,0,0-.39-1.025,5.7,5.7,0,0,1-.664-.482,1.018,1.018,0,0,1-.313-.765c-.013-.707.449-1.15,1.39-1.313a9.986,9.986,0,0,0,3.245-.95c3.19-1.952,2.327-7-.739-8.945l-12.41,28.147-10.278-.037,20.554-29.067a10.38,10.38,0,0,0-3.085-.341,13.1,13.1,0,0,0-8.334,3.422c-2.457,2.209-3.659,4.5-3.634,6.87a2.963,2.963,0,0,0,.7,2.182,2.848,2.848,0,0,0,1.382.612,2.976,2.976,0,0,1,1.242.464,1.461,1.461,0,0,1,.529,1.169c.016.889-.559,1.329-1.683,1.312a3.675,3.675,0,0,1-2.487-1.213,5,5,0,0,1-1.568-3.806c-.043-2.67,1.207-5.372,3.725-8.075a16.11,16.11,0,0,1,11.276-5c6.33-.068,12.193,3.745,12.1,9.991-.031,2.171-1.593,4.81-3.651,5.362a8.452,8.452,0,0,1-2.5.365,4.008,4.008,0,0,1,.618.648c1.075,1.417.884,3.768.615,5.424a1.3,1.3,0,0,0,1.035,1.6c.806.054,2.249-1.89,2.7-2.535,1.047-1.436,2.11-2.93,3.28-4.329a20.084,20.084,0,0,1,5.83-5.224" transform="translate(-476.356 -469.89)" fill="#e78a3e" fill-rule="evenodd"/>
      <path id="Path_375" data-name="Path 375" d="M624.729,535.434c-1.833,2.552-4.1,4.2-5.178,3.706-.015-.007-.046-.021-.069-.107-.156-.562.458-2.246,1.94-4.376,1.644-2.361,3.5-4.01,4.509-4.01a.915.915,0,0,1,.193.018.521.521,0,0,1,.374.343c.28.767-.449,2.588-1.77,4.425m1.623-5.545a1.59,1.59,0,0,0-.42-.057c-1.587,0-3.724,2.257-5.194,4.367-1.2,1.718-2.365,3.942-2.055,5.051a.943.943,0,0,0,.517.627,1.946,1.946,0,0,0,.8.165c1.8,0,4.042-2.229,5.416-4.139,1.2-1.672,2.321-3.907,1.869-5.166a1.323,1.323,0,0,0-.929-.846" transform="translate(-577.471 -512.497)" fill="#fff" fill-rule="evenodd"/>
      <path id="Path_376" data-name="Path 376" d="M742.737,534.634l-2.985-2.135-2.987,2.135,1.151-3.44-3-2.125,3.7.008,1.133-3.446,1.135,3.446,3.7-.008-2.993,2.125Zm-1.248-6.372-1.738-5.278-1.738,5.278-5.659-.009,4.584,3.25-1.759,5.274,4.573-3.271,4.574,3.271-1.76-5.274,4.585-3.25Z" transform="translate(-661.515 -507.4)" fill="#fff" fill-rule="evenodd"/>
      <path id="Path_377" data-name="Path 377" d="M552.09,502.061a10.323,10.323,0,0,1-9.758-7.269l-.24-.782-.491.658c-.023.026-.5.656-.514.68-2.091,2.652-6.919,6.574-10.663,6.574a3.853,3.853,0,0,1-2.318-.7c-2.816-1.833-2.251-5.363-1.667-7.3,1.726-5.717,7.393-11.581,11.228-11.623h.064a5.244,5.244,0,0,1,2.078.417,3.4,3.4,0,0,1,1.766,4.031c-.375,1.585-1.474,2.782-2.572,2.787a1.267,1.267,0,0,1-1.368-1.206,2,2,0,0,1,1.39-2.177l.781-.165-.586-.533a2.66,2.66,0,0,0-1.524-.476c-1.414.005-3.4,2.3-5.049,5.833a14.433,14.433,0,0,0-1.627,5.351,2.479,2.479,0,0,0,.612,1.872,2.1,2.1,0,0,0,1.545.559c1.991,0,5.041-1.868,6.327-3.467.964-1.115,1.386-1.688,1.665-2.065l.028-.042.675-.922.074-.1v-.126a10.142,10.142,0,1,1,10.147,10.2m-63.555-15.45a2.95,2.95,0,0,0-1.451-.576,2.383,2.383,0,0,1-1.172-.5,2.639,2.639,0,0,1-.565-1.875c-.025-2.24,1.151-4.439,3.49-6.54a12.7,12.7,0,0,1,8.05-3.315h.385a9.92,9.92,0,0,1,1.949.188L489.2,488.172V488.1a1.861,1.861,0,0,0-.667-1.478m32.517,11.316a20.045,20.045,0,0,0,5.33-8.742c.657-2.279.48-4.16-.512-5.439a4.8,4.8,0,0,0-3.937-1.7,7.716,7.716,0,0,0-3.669.954,19.669,19.669,0,0,0-5.7,5.122c-.994,1.193-1.925,2.47-2.825,3.7l-.442.6c-.858,1.237-2.093,2.722-3.02,2.722h-.064a1.484,1.484,0,0,1-1.038-.534,2.016,2.016,0,0,1-.414-1.556c.4-2.451.227-4.117-.532-5.108a3.411,3.411,0,0,0-.549-.58l-.936-.795,1.375.031a8.272,8.272,0,0,0,2.231-.351c1.931-.517,3.3-3.022,3.334-4.947a8.382,8.382,0,0,0-2.528-6.186,12.708,12.708,0,0,0-8.96-3.363h-.168a15.6,15.6,0,0,0-10.955,4.856c-2.433,2.61-3.648,5.227-3.61,7.769a4.612,4.612,0,0,0,1.43,3.5,3.3,3.3,0,0,0,2.184,1.092h.063a1.417,1.417,0,0,0,.989-.272.788.788,0,0,0,.187-.6,1.032,1.032,0,0,0-.372-.841,2.368,2.368,0,0,0-1.051-.376,3.213,3.213,0,0,1-1.6-.73,3.379,3.379,0,0,1-.832-2.483c-.026-2.5,1.247-4.915,3.78-7.2a13.59,13.59,0,0,1,8.618-3.538,10.762,10.762,0,0,1,3.22.358l.6.161-20.428,28.89,9.141.036,12.51-28.352.443.28a6.61,6.61,0,0,1,2.955,5.545A4.751,4.751,0,0,1,503.08,484a10.394,10.394,0,0,1-3.406,1.011c-1.034.174-1.024.667-1.021.873a.587.587,0,0,0,.174.455,5.9,5.9,0,0,0,.6.437l.07.053a1.775,1.775,0,0,1,.523,1.342,8.909,8.909,0,0,1-.456,2.337A32.175,32.175,0,0,0,497.9,497.8c.016,1.9.762,2.786,2.412,2.859,1.113.044,2.526-.587,4.211-1.876.192-.148.388-.292.587-.439a16.9,16.9,0,0,0,2.339-1.958c.256-.271.471-.545.679-.8.13-.167.26-.326.381-.473l1-1.155-.251,1.7a7.283,7.283,0,0,0-.107,1,5.56,5.56,0,0,0,.986,3.548,4.215,4.215,0,0,0,3.254,1.333c2.317,0,5.182-1.348,7.662-3.605m-22.961-13.058a2.223,2.223,0,0,1,1.427-.724,9.661,9.661,0,0,0,3.1-.9,3.847,3.847,0,0,0,1.8-3.4,5.849,5.849,0,0,0-2.118-4.5Zm38.714,3.528a3.006,3.006,0,0,1,1.076-2.612,1.619,1.619,0,0,0-.189-.014c-.87.006-2.675,1.882-4.3,5.36a13.825,13.825,0,0,0-1.552,5.023,1.727,1.727,0,0,0,.376,1.288,1.3,1.3,0,0,0,.952.32c1.689,0,4.536-1.741,5.684-3.169.952-1.1,1.344-1.641,1.633-2.027l.031-.038q.3-.41.6-.823a10.535,10.535,0,0,1,.6-3.178,3.327,3.327,0,0,1-2.712,1.8,2.06,2.06,0,0,1-2.2-1.93m15.281-7.019a10.955,10.955,0,0,0-9.774,5.782c.024-.086.048-.168.066-.25a4.17,4.17,0,0,0-2.224-4.949,6.1,6.1,0,0,0-2.428-.49h-.073c-3.985.042-8.784,4.994-11.1,9.872a19.275,19.275,0,0,0,.685-1.923c.93-3.22.155-5.148-.655-6.2a5.764,5.764,0,0,0-4.648-2.051,8.647,8.647,0,0,0-4.092,1.064,20.524,20.524,0,0,0-5.969,5.335c-1.018,1.214-1.952,2.506-2.86,3.75l-.443.607c-1.067,1.522-1.98,2.346-2.3,2.346a.559.559,0,0,1-.412-.212,1.175,1.175,0,0,1-.216-.883c.435-2.681.2-4.56-.7-5.748h0a10.3,10.3,0,0,0,1.649-.339c2.338-.622,3.948-3.488,3.983-5.774a9.232,9.232,0,0,0-2.786-6.811,13.612,13.612,0,0,0-9.592-3.62h-.189a16.5,16.5,0,0,0-11.589,5.133c-2.6,2.785-3.888,5.6-3.844,8.374a5.49,5.49,0,0,0,1.7,4.113,4.106,4.106,0,0,0,2.793,1.333h.073a3.047,3.047,0,0,0,.977-.14l-9.558,13.516,11.419.042,7.812-17.7a2.22,2.22,0,0,0-.025.333,1.438,1.438,0,0,0,.467,1.086,6.228,6.228,0,0,0,.673.495.947.947,0,0,1,.229.68,8.088,8.088,0,0,1-.421,2.1c-1.157,3.822-1.712,6.293-1.7,7.548.029,2.953,1.79,3.654,3.263,3.717,1.341.056,2.914-.615,4.8-2.057.188-.145.382-.284.583-.431a18.058,18.058,0,0,0,2.449-2.061l.164-.176a6.305,6.305,0,0,0,1.194,3.966,5.158,5.158,0,0,0,3.936,1.649c2.538,0,5.628-1.44,8.265-3.844a20.005,20.005,0,0,0,4.491-6.3c-.193.477-.367.952-.508,1.416-1.125,3.722-.413,6.64,1.989,8.206a4.689,4.689,0,0,0,2.792.847c4.062,0,9.066-4.029,11.319-6.9a.563.563,0,0,0,.054-.068,11.16,11.16,0,0,0,10.293,7.1,10.746,10.746,0,1,0,0-21.491" transform="translate(-473.954 -468.628)" fill="#fff" fill-rule="evenodd"/>
      <path id="Path_378" data-name="Path 378" d="M1200.223,566.157a1.149,1.149,0,0,1-.53.133.822.822,0,0,1-.87-.824c.021-.219.069-.8,1.586-.8a8.712,8.712,0,0,1,1.032.07,3.4,3.4,0,0,1-1.218,1.426m.186-2.322c-1.894,0-2.362.867-2.421,1.6a1.639,1.639,0,0,0,1.706,1.673,2.057,2.057,0,0,0,.915-.219,4.734,4.734,0,0,0,1.852-2.324l.235-.512-.8-.1a11.6,11.6,0,0,0-1.491-.124" transform="translate(-1005.627 -537.803)" fill="#fff" fill-rule="evenodd"/>
      <path id="Path_379" data-name="Path 379" d="M911.113,503.208a5.25,5.25,0,0,0-1.868,5.667l.021.069c2.214,4.5,1.316,8.476-2.394,10.637a6.138,6.138,0,0,1-3.088.9h-.123a5.419,5.419,0,0,1-4.826-2.232,2.8,2.8,0,0,1-.062-2.869c.717-1.216,2.37-1.909,4.54-1.909a13.173,13.173,0,0,1,1.872.143l.353.053.1-.333a12.907,12.907,0,0,0,.186-3.643v-.107a10.906,10.906,0,0,1,.342-3.4l.311-.99-.919.506a17,17,0,0,0-3.779,3.714c-1.266,1.475-2.492,2.825-3.651,4.013l-.055.054a.383.383,0,0,0-.052.056,43.953,43.953,0,0,1-6.948,6.5,4.43,4.43,0,0,1-2.4.83h-.034a2.414,2.414,0,0,1-1.5-.5,1.761,1.761,0,0,1-.637-1.523,4.8,4.8,0,0,1,.179-1.271l.371-1.344-1.051.93a29.664,29.664,0,0,1-3.635,2.8,5.351,5.351,0,0,1-2.735.859H879.6a2.8,2.8,0,0,1-2.046-.812,4.182,4.182,0,0,1-.9-3.571l.138-1.157-.847.815a27.228,27.228,0,0,1-5.022,4.143,4.623,4.623,0,0,1-1.858.422h-.062c-1.267,0-1.923-.484-2.061-1.528-.248-1.772,1.833-5.668,3.076-8,.25-.468.476-.885.666-1.266.257-.6.3-1.02.125-1.272a.567.567,0,0,0-.89.022L859.564,520l-.041.052a3.225,3.225,0,0,1-2.012.721c-.707,0-1.054-.315-1.085-.993a3.292,3.292,0,0,1,.571-1.613c.077-.145.218-.386.4-.705l.21-.37c3.647-6.377,4.242-7.787,4.086-8.275a.455.455,0,0,0-.439-.32c-.5,0-1.543,1.089-6.6,6.854l-.1.11c-1.775,2.025-3.454,3.937-4.06,4.5a4.2,4.2,0,0,1-2.183.968.953.953,0,0,1-.7-.215,1.3,1.3,0,0,1-.254-.929,3.834,3.834,0,0,1,.6-1.655l5.836-12.07-.172-.1-1.792,2.263c-.23.288-.461.586-.7.889l-.347.44c-.942,1.2-2.016,2.566-3.193,3.974-.174.187-.343.375-.515.564l-.291.317a36.12,36.12,0,0,1-6.027,5.653,4.206,4.206,0,0,1-2.334.822,2.33,2.33,0,0,1-1.5-.539,1.78,1.78,0,0,1-.632-1.543,5.032,5.032,0,0,1,.2-1.312l.379-1.389-1.072.978a24.19,24.19,0,0,1-3.6,2.84,4.789,4.789,0,0,1-2.627.849h-.04a2.712,2.712,0,0,1-2.015-.816,4.349,4.349,0,0,1-.874-3.409l.125-1.376-.87,1.091a17.726,17.726,0,0,1-4.7,4.043,4.315,4.315,0,0,1-1.852.428c-1.291,0-1.927-.478-2.057-1.552-.071-.627.127-2.018,1.488-5.085.795-1.691,1.5-3.159,2.154-4.506l.014-.037c.168-.48.177-.719.04-.918a.483.483,0,0,0-.392-.193c-.466,0-1,.637-3.558,3.873l-.024.028a68.607,68.607,0,0,1-6.975,8.025,3.03,3.03,0,0,1-1.886.737,1.25,1.25,0,0,1-.879-.3,1.312,1.312,0,0,1-.319-.982,3.89,3.89,0,0,1,.588-1.637c.949-1.7,1.022-1.876,1.04-1.924.433-.812.869-1.669,1.28-2.478l.475-.926c.5-.99,1.077-2.112,1.624-3.269l.017-.046c.138-.427.138-.677,0-.867a.5.5,0,0,0-.407-.2c-.31,0-1.038,0-7.763,8.934L801,521.084h-4.071c.586-1.162,1.511-3.1,2.741-5.692l.029-.066c2.665-5.6,7.6-15.984,8.739-16.9a5.646,5.646,0,0,1,2.273,2.608c.671,1.225-2.467,6.042-3.5,7.625-.21.319-.386.594-.515.8l-1.652,2.639.157.12,2.161-2.262c.929-.976,1.792-1.863,2.507-2.606.3-.3.843-.949,1.542-1.783,1.735-2.059,5.792-6.88,6.989-6.88a3.5,3.5,0,0,1,1.936,1.01,1.286,1.286,0,0,1,.452.768,41.367,41.367,0,0,1-2.47,5.026c-.429.8-.914,1.7-1.256,2.377l-.856,1.684.162.116,1.359-1.326c.372-.349,1.04-1.1,1.887-2.061,2-2.252,6.686-7.522,7.94-7.522a2.911,2.911,0,0,1,2.123,1.266.906.906,0,0,1,.084.436,37.526,37.526,0,0,1-2.118,4.357c-.639,1.21-1.357,2.592-1.84,3.6l-.215.445c-.78,1.614-1.4,2.888-1.779,3.9-.448,1.2-.5,2-.169,2.464a.915.915,0,0,0,.789.386,4.6,4.6,0,0,0,2.915-2.046l.047-.091c.083-.223.171-.45.263-.676a25.019,25.019,0,0,1,5.553-8.113,9.449,9.449,0,0,1,3.825-2.291,7.089,7.089,0,0,1,1.471-.247l.115-.012.534-.054a2.578,2.578,0,0,1,.358-.017c2.538,0,7.342,1,7.413,1.942a3.154,3.154,0,0,1-.4,1.237l-.065.124c-.3.6-.778,1.541-1.3,2.677-.248.531-.534,1.11-.836,1.724l-.092.187c-.277.557-.568,1.15-.866,1.779-1.349,2.784-1.251,3.345-1.051,3.653a.6.6,0,0,0,.514.271c1.579,0,8.662-8.889,11.635-12.707a2.62,2.62,0,0,1,1.085-.952,3.441,3.441,0,0,1,1.974,2.236,5.863,5.863,0,0,1-.007,2.768,13.132,13.132,0,0,1-1.423,2.615l-1.757,2.788.16.117,2.267-2.408c2.414-2.567,7.991-7.839,8.752-7.892a4.244,4.244,0,0,1,2.644,1.387.947.947,0,0,1,.093.436,12.788,12.788,0,0,1-1.563,4.045l-.728,1.439.157.116,1.227-1.068c.292-.258.747-.672,1.355-1.225,1.366-1.25,5.515-5.051,6.177-5.112a3.856,3.856,0,0,1,2.45,1.386.785.785,0,0,1,.094.414c0,.425-.321,1.566-1.847,4.589-.862,1.765-1.546,3.157-1.977,4.242a8.145,8.145,0,0,0-.67,2.208.8.8,0,0,0,.2.616.682.682,0,0,0,.5.192c1.654,0,3.6-2.312,3.982-2.789l.055-.085a24.321,24.321,0,0,1,5.616-7.961,9.763,9.763,0,0,1,3.937-2.386,7.888,7.888,0,0,1,1.99-.4c.26-.02.543-.027.839-.027,2.878,0,6.752.857,7.243,1.922.136.3-.228,1.012-.424,1.4-.369.713-.808,1.6-1.314,2.622-.215.44-.458.91-.718,1.417l-.2.381c-.3.575-.611,1.188-.93,1.827-.326.622-1.071,2.429-.558,3.253a.855.855,0,0,0,.758.406,3.126,3.126,0,0,0,1.661-.752,41.6,41.6,0,0,0,4.547-4.787c1.2-1.409,2.653-3.1,3.793-4.411,1.249-1.378,4.321-3.955,6.12-3.955a1.243,1.243,0,0,1,.451.074c1.222.458,1.334.713,1.342.76.03.134-.391.534-.681.808m1.5-.978c-.111-.509-.647-.9-1.863-1.36a2.122,2.122,0,0,0-.753-.127c-2.184,0-5.549,2.909-6.75,4.237-1.658,1.911-2.867,3.317-3.81,4.425a40.8,40.8,0,0,1-4.424,4.674c-.716.513-1.033.568-1.136.568-.027,0-.038,0-.042-.009a4.115,4.115,0,0,1,.592-2.457c.264-.533.526-1.038.774-1.522l.157-.3c.343-.666.649-1.262.917-1.81.558-1.129,1.011-2.034,1.308-2.617.4-.8.711-1.5.436-2.1-.782-1.7-5.6-2.406-8-2.406-.313,0-.616.01-.9.031a8.584,8.584,0,0,0-2.177.436,10.6,10.6,0,0,0-4.263,2.57,25.406,25.406,0,0,0-5.8,8.2c-.917,1.129-2.219,2.282-3.137,2.41a11.1,11.1,0,0,1,.612-1.888c.425-1.07,1.132-2.51,1.948-4.171,1.3-2.574,1.932-4.194,1.937-4.954a1.575,1.575,0,0,0-.23-.852,4.619,4.619,0,0,0-3.159-1.772h-.039c-.757.022-2.788,1.745-6.5,5.135a7.272,7.272,0,0,0,.751-2.514,1.637,1.637,0,0,0-.224-.87,4.986,4.986,0,0,0-3.352-1.77c-.954,0-4.392,3.2-7.256,6.026a2.186,2.186,0,0,0,.068-.214,6.653,6.653,0,0,0,.014-3.158,4.275,4.275,0,0,0-2.6-2.86.782.782,0,0,0-.184-.023c-.69,0-1.452.876-1.742,1.249l-.026.029c-4.236,5.454-9.311,11.452-10.737,12.292a12.67,12.67,0,0,1,1.065-2.661c.235-.483.46-.946.68-1.388l.186-.381c.392-.8.689-1.4.937-1.926.513-1.1.962-2,1.3-2.667l.043-.09a3.583,3.583,0,0,0,.5-1.693c-.173-2.13-7.3-2.7-8.248-2.7a3.679,3.679,0,0,0-.463.025c-.18.018-.358.037-.529.058l-.1.008a7.055,7.055,0,0,0-1.642.283,10.19,10.19,0,0,0-4.146,2.476,25.9,25.9,0,0,0-5.756,8.415c-.085.209-.174.422-.251.635a4.063,4.063,0,0,1-2.191,1.647c-.054,0-.089-.01-.1-.031-.04-.057-.213-.408.271-1.708.37-.986.984-2.247,1.76-3.843l.209-.434c.482-1.013,1.2-2.378,1.826-3.579,1.49-2.844,2.194-4.236,2.213-4.71a1.723,1.723,0,0,0-.177-.839l-.026-.039a3.8,3.8,0,0,0-2.846-1.675c-1.46,0-4.565,3.314-8.205,7.4,1.381-2.593,2.273-4.323,2.278-4.85a1.97,1.97,0,0,0-.7-1.361,4.226,4.226,0,0,0-2.531-1.255c-1.474,0-4.458,3.406-7.647,7.2-.433.515-.828.982-1.124,1.322,1.288-2.174,2.46-4.573,1.821-5.739-.661-1.208-1.7-2.717-2.879-3.039a.529.529,0,0,0-.165-.026c-.942,0-2.983,3.753-9.5,17.48-1.337,2.812-2.492,5.24-3.031,6.245l-.322.6h5.87l3.062-4.017c2.794-3.713,5.1-6.578,6.354-7.893-.465.955-.927,1.864-1.368,2.724l-.349.687c-.444.869-.863,1.688-1.286,2.487l-.022.044c-.013.038-.128.282-1,1.848a4.562,4.562,0,0,0-.691,2.023,2.119,2.119,0,0,0,.565,1.57,2.051,2.051,0,0,0,1.475.544,3.913,3.913,0,0,0,2.449-.946,69.664,69.664,0,0,0,7.1-8.166c.682-.865,1.339-1.7,1.874-2.345-.423.883-.84,1.753-1.242,2.6l-.328.684c-1.156,2.61-1.677,4.466-1.55,5.518s.743,2.28,2.915,2.28a5.127,5.127,0,0,0,2.2-.512,17.963,17.963,0,0,0,4.232-3.4,4.583,4.583,0,0,0,1.112,2.88,3.578,3.578,0,0,0,2.634,1.074h.036a5.614,5.614,0,0,0,3.073-.98,20.741,20.741,0,0,0,2.813-2.115c-.008.1-.012.2-.013.3a2.537,2.537,0,0,0,.953,2.2,3.156,3.156,0,0,0,2.025.715,5.031,5.031,0,0,0,2.814-.967,36.925,36.925,0,0,0,6.209-5.819l.292-.322c.157-.174.318-.351.489-.534.6-.722,1.216-1.472,1.89-2.32l-2.908,6.01a4.316,4.316,0,0,0-.686,2.02,1.971,1.971,0,0,0,.495,1.519,1.77,1.77,0,0,0,1.3.461,4.916,4.916,0,0,0,2.761-1.2c.624-.578,2.139-2.3,4.216-4.671l.074-.085c1.728-1.967,3.831-4.367,5.069-5.64-.848,1.774-2.655,4.942-3.47,6.372l-.089.156c-.29.5-.507.891-.616,1.083a3.908,3.908,0,0,0-.669,2.041,1.731,1.731,0,0,0,1.92,1.785,3.878,3.878,0,0,0,2.7-1.073l9.317-10.239c-.081.154-.165.31-.254.479-1.369,2.567-3.439,6.452-3.157,8.469.136,1.022.745,2.241,2.894,2.241h.069a5.378,5.378,0,0,0,2.2-.5,24.124,24.124,0,0,0,4.487-3.57,4.466,4.466,0,0,0,1.183,3.171,3.641,3.641,0,0,0,2.652,1.062h.044a6.153,6.153,0,0,0,3.174-.985,25.821,25.821,0,0,0,2.863-2.132c-.005.118-.005.226-.005.317a2.487,2.487,0,0,0,.965,2.176,3.241,3.241,0,0,0,2,.674h.045a5.3,5.3,0,0,0,2.862-.971,44.36,44.36,0,0,0,7.094-6.626l.092-.1c1.166-1.19,2.409-2.553,3.693-4.055a27.868,27.868,0,0,1,2.689-2.885,15.327,15.327,0,0,0-.127,2.544v.129a19.786,19.786,0,0,1-.067,3.022,13.393,13.393,0,0,0-1.61-.1c-3.389,0-4.757,1.456-5.267,2.324a3.6,3.6,0,0,0,.063,3.692c.975,1.652,3.052,2.641,5.553,2.641h.133a6.924,6.924,0,0,0,3.508-1.015c4.114-2.4,5.137-6.763,2.745-11.654-.677-2.607.667-3.894,1.655-4.839.58-.554,1.035-.992.914-1.568" transform="translate(-708.207 -488.497)" fill="#fff" fill-rule="evenodd"/>
      <path id="Path_380" data-name="Path 380" d="M1136.4,533.857a17.76,17.76,0,0,1-1.956,2.584c-1.362,1.456-1.953,1.571-2.1,1.571s-.189-.045-.2-.058a.683.683,0,0,1-.113-.449c0-.567.386-1.81,2.207-4.488,2.553-3.711,3.432-4.118,3.694-4.118h0c.176,0,.369,0,.369.587,0,.659-.329,1.955-1.9,4.372m1.518-5.784c-.644,0-1.672.541-4.379,4.481-1.576,2.318-2.342,3.936-2.352,4.949a1.387,1.387,0,0,0,.359,1.032,1.108,1.108,0,0,0,.8.3c.679,0,1.571-.6,2.732-1.849a18.962,18.962,0,0,0,2.046-2.7c1.337-2.076,2.018-3.69,2.018-4.8,0-1.275-.842-1.411-1.219-1.411" transform="translate(-956.262 -511.188)" fill="#fff" fill-rule="evenodd"/>
      <path id="Path_381" data-name="Path 381" d="M944.264,532.885a22.727,22.727,0,0,1-1.951,2.625c-1.273,1.394-1.855,1.6-2.084,1.6-.108,0-.278-.01-.27-.537.01-.832.743-2.366,2.187-4.568,2.625-4,3.443-4.2,3.584-4.2a.3.3,0,0,1,.229.068.836.836,0,0,1,.132.554c0,.94-.619,2.439-1.826,4.451m1.466-5.9c-.635,0-1.642.544-4.293,4.573-1.551,2.367-2.312,4-2.318,5.005-.012,1.205.779,1.359,1.117,1.366h0c.682,0,1.517-.581,2.711-1.884a23.077,23.077,0,0,0,2.035-2.744c1.3-2.166,1.94-3.76,1.946-4.866a1.516,1.516,0,0,0-.377-1.14,1.119,1.119,0,0,0-.822-.309" transform="translate(-814.317 -510.382)" fill="#fff" fill-rule="evenodd"/>
    </g>
  </g>
</svg>
